<?xml version="1.0" encoding="utf-8"?>
<!-- Generator: Adobe Illustrator 22.1.0, SVG Export Plug-In . SVG Version: 6.00 Build 0)  -->
<svg version="1.1"
	 id="svg2" inkscape:version="0.91 r13725" sodipodi:docname="World_map_-_low_resolution.svg" xmlns:cc="http://creativecommons.org/ns#" xmlns:dc="http://purl.org/dc/elements/1.1/" xmlns:inkscape="http://www.inkscape.org/namespaces/inkscape" xmlns:rdf="http://www.w3.org/1999/02/22-rdf-syntax-ns#" xmlns:sodipodi="http://sodipodi.sourceforge.net/DTD/sodipodi-0.dtd" xmlns:svg="http://www.w3.org/2000/svg"
	 xmlns="http://www.w3.org/2000/svg" xmlns:xlink="http://www.w3.org/1999/xlink" x="0px" y="0px" viewBox="0 0 950 620"
	 style="enable-background:new 0 0 950 620;" xml:space="preserve">
<style type="text/css">
	.st0{fill:#E6E7E8;stroke:#E6E7E8;stroke-miterlimit:10;}
	.st1{fill:#FFFFFF;stroke:#E6E7E8;stroke-miterlimit:10;}
	.st2{fill:#FFFFFF;stroke:#FFFFFF;stroke-miterlimit:10;}
	.st3{fill:#E6E7E8;stroke:#FFFFFF;stroke-miterlimit:10;}
</style>
<sodipodi:namedview  bordercolor="#666666" borderopacity="1" gridtolerance="10" guidetolerance="10" id="namedview342" inkscape:current-layer="svg2" inkscape:cx="248.04005" inkscape:cy="326.05286" inkscape:object-nodes="true" inkscape:object-paths="true" inkscape:pageopacity="0" inkscape:pageshadow="2" inkscape:snap-nodes="true" inkscape:snap-smooth-nodes="true" inkscape:window-height="980" inkscape:window-maximized="1" inkscape:window-width="1920" inkscape:window-x="0" inkscape:window-y="34" inkscape:zoom="1" objecttolerance="10" pagecolor="#ffffff" showgrid="false">
	</sodipodi:namedview>
<path id="kalimantan" class="st0" d="M781.7,364.4l-2.3,8.7l-12.5,4.2l-3.8-4.4l-1.8,0.5l3.4,13.1l5.1,0.6l6.8,2.6v2.6l3.1-0.6
	l4.5-6.3v-5.1l2.5-5.1l2.8,0.6l-3.4-7.1l-0.5-4.6L781.7,364.4L781.7,364.4z"/>
<path id="papua_new_guinea" class="st0" d="M852.8,388.3l-0.4,24.4l3.5-0.2l4.6-5.4l3.9,0.2l2.5,2.2l0.8,6.9l8,4.2l2-0.8v-2.5
	l-6.4-5.3l-3.2-7.3l2.5-1.2l-1.8-4l-3.7-0.1l-0.9-4.3l-9.8-6.6L852.8,388.3L852.8,388.3z"/>
<path id="mexico" class="st0" d="M137.5,265.4l4.8,15.2l-2.2,1.3l0.2,3l4.2,3.3v6.1l5.2,5l-2.2-14.9l-3-9.8l0.8-6.8l2.5,0.2l1,2.3
	l-1,5.8l13,25.4v9.1l10.5,12.3l11.5,5.3l4.8-2.8l6.8,5.5l4-4l-1.8-4.5l5.8-1.8l1.8,1l1.8-1.8h2.8l5-8.8l-2.5-2.3l-9.8,2.3l-2.2,6.5
	l-5.8,1l-6.8-2.8l-3-9.6L186,294l-4.6-2.9l-2.2-11.6l-1.9-0.8l-3.4,3.4L170,280l-1.5-7.7L153,271l-7.9-6L137.5,265.4L137.5,265.4z"
	/>
<path id="estonia" class="st0" d="M517.8,183.7l-5.6-0.2l-3.5,2.2v1.6l2.3,2.2l7.2,1.2L517.8,183.7L517.8,183.7z"/>
<path id="algeria" class="st0" d="M473.9,267.5l-4.1-1.4l-17,3.2l-3.7,2.8l2.3,11.7l-6.8,0.3l-4.1,6.5l-9.7,2.3v4.8l31.9,24.4
	l5.4,0.5l18.1-14.1l-1.8-2.3l-3.4-0.5l-2-3.4V288l-1.4-1.4l0.2-3.6l-3.6-3.6l-0.5-3.9l1.6-1.1l-0.7-4.1L473.9,267.5L473.9,267.5z"/>
<path id="morocco" class="st0" d="M448.3,272.3h-11.5l-2.3,5l-5.2,2.5l-4.3,11.6l-8.4,5l-11.8,19.4l11.5-0.2l0.5-5.7h2.9v-7.8H430
	l0.2-10l9.7-2.3l4.1-6.6l6.3-0.2L448.3,272.3L448.3,272.3z"/>
<path id="mauretania" class="st0" d="M404.9,316.7l2.2,2.9l-0.5,12.3l3.2-2.3l2.3-0.5l3.2,1.1l3.6,5l3.4-2.3l16.5-0.2l-4.1-27.6h4.4
	l-8.2-6.2v4.1h-10.3v7.8h-3l-0.4,5.7L404.9,316.7L404.9,316.7z"/>
<path id="senegal" class="st0" d="M410.1,330.3l-3.9,2.9l-0.9,1.6l-0.3,1.6l1.5,1l4.8-0.1l3.1-0.8l0.4,1.5l-0.3,2l3,1.5l0.6,0.7
	l3.9,0.1l0.1-1.7l-3.6-4.3l-4-5.4l-2.5-1L410.1,330.3L410.1,330.3z"/>
<path id="gambia" class="st0" d="M406.9,338.3l-0.1,1.1l6.9-0.1l0.4-1l-0.1-1l-2,0.8L406.9,338.3L406.9,338.3z"/>
<path id="casamance" class="st0" d="M406.8,340.2l1.2,3l0.7-1.9l8.4,0.9l-3.6-1.9L406.8,340.2L406.8,340.2z"/>
<path id="bissau" class="st0" d="M408.6,344.5l1.4,2.8l3.9-3.4v-1l-4.6-0.7L408.6,344.5L408.6,344.5z"/>
<path id="guinee" class="st0" d="M410.4,347.9l3,4.7l4-3.4l4.1-0.2l3.4,4.5l2.9,1.9l1.1-2.1l1-0.5l-0.1-4.6l-1.9-5.5l-5.9,0.6
	l-7.2-0.6v1.9L410.4,347.9L410.4,347.9z"/>
<path id="sierra_leone" class="st0" d="M413.9,353.1l5.6,5.5l4-4.9l-2.5-4l-3.5,0.4L413.9,353.1L413.9,353.1z"/>
<path id="liberia" class="st0" d="M420.2,359.2l11,7.3l-0.3-5.6l-3.3-3.9l-3.2-2.9L420.2,359.2L420.2,359.2z"/>
<path id="ivoire" class="st0" d="M432.1,366.8l4.3-3l5.3-0.9l5.4,1.2l-2.8-4.2l-0.8-2.6l0.8-7.6l-4.9,0.2l-2.2-2.1l-4.6,0.1
	l-2.2,0.4l0.2,5.1l-1.2,0.5l-1.4,2.6l3.6,4.2L432.1,366.8L432.1,366.8z"/>
<path id="mali" class="st0" d="M419.5,335.8l3.1-2.1l17.1-0.1l-4-27.5l4.5-0.1l21.9,16.7l2.9,0.4l-1.1,9.3l-13.8,1.2l-10.6,7.9
	l-1.9,5.4l-7.4,0.3l-1.9-5.4l-5.6,0.4l0.2-1.8L419.5,335.8L419.5,335.8z"/>
<path id="burkina" class="st0" d="M450.6,334.3l3.6-0.3l6,8.4l-5.5,4.2l-4-1l-5.4,0.1l-0.9,3.2l-4.5,0.2l-1.2-1.7l1.6-5.1
	L450.6,334.3L450.6,334.3z"/>
<path id="niger" class="st0" d="M460.9,342l2.5-0.1l2.3-3.5l3.9-0.7l4.1,2.5l8.8,0.2l6.8-2.8l2.5-2.2l0.2-2.9l4.7-4.8l1.2-10.5
	l-3.1-6.5l-8-1.9l-18.4,14.4l-2.6-0.2l-1.1,10l-9.4,0.9L460.9,342L460.9,342z"/>
<path id="ghana" class="st0" d="M444.3,357l1.1,2.6l2.9,4.6l1.6-0.1l4.4-2.5l-0.3-14.3l-3.4-1l-4.8,0.1L444.3,357L444.3,357z"/>
<path id="togo" class="st0" d="M455.2,361.2l2.7-1.6l-0.1-10.4l-1.7-2.8l-1.1,0.9L455.2,361.2L455.2,361.2z"/>
<path id="benin" class="st0" d="M458.7,359.5h2.1l0.1-6l2.7-3.9l-0.1-6.8l-2.4-0.1l-4.2,3.3l1.7,3.3L458.7,359.5L458.7,359.5z"/>
<path id="nigeria" class="st0" d="M461.6,359.4l3.9,0.2l4.7,5.3l2.3,0.6l1.8-0.9l2.7-0.4l0.9-3.8l3.7-2.5l4-0.2l7.4-13.6l-0.1-3.1
	l-3.4-2.6l-6.8,3l-9.1-0.1l-4.4-2.8l-3.1,0.7l-1.6,2.8l-0.1,8l-2.6,3.7L461.6,359.4L461.6,359.4z"/>
<path id="tunisia" class="st0" d="M474.9,267.3l5.5-2.2l1.8,1.2l0.1,1.4l-0.9,1.1l0.1,2l0.9,0.5v3.5l-1,1.6l0.1,1.1l3.7,1.3l-3,4.6
	l-1.2-0.1l-0.2,3.7l-1.3,0.2l-1.1-1l0.3-3.8l-3.6-3.5l-0.5-3.1l1.8-1.4L474.9,267.3L474.9,267.3z"/>
<path id="libya" class="st0" d="M480,288l1.6-0.3l0.5-3.6h0.8l3.2-5.2l7.9,2.3l2.1,3.3l7.7,3.5l4-1.7l-0.4-1.7l-1.8-1.7l0.2-1.2
	l2.9-2.4h5.7l2.2,2.9l4.5,0.7l0.6,36.9l-3.4-0.1l-20.4-10.6l-2.2,1.2l-8.4-2.1l-2.3-3l-3.3-0.5l-1.7-3V288L480,288z"/>
<path id="egypt" class="st0" d="M521.9,283.1l2.7,0.1l5.2,1.4l2.5,0.1l3.1-2.6h1.4l2.6,1.4h3.3h0.6l2.1,6l0.6,1.9l0.5,2.9l-1,0.7
	l-1.7-0.9l-2-6.4l-1.8-0.1l-0.1,2.2l1.2,3.7l9.4,11.6l0.2,5l-2.7,3.1l-25.6-0.3L521.9,283.1L521.9,283.1z"/>
<path id="chad" class="st0" d="M492.8,336l0.1-3l4.7-4.6l1.3-11.3l-3.2-6l2.2-1.1l21.4,11.1l-0.1,10.9l-3.8,3.2v5.6l2.5,4.8h-4.4
	l-7.2,7.1l-0.2,2.2l-5.3-0.1l-0.1,1l-3-0.4l-2.1-3.9l-1.6-0.8l0.2-1.2l2-1.5v-7l-2.7-0.4l-3.3-2.4L492.8,336L492.8,336L492.8,336z"
	/>
<path id="south_sudan" inkscape:label="#south sudan" class="st0" d="M549.1,350.3l-2.9-4.9l-0.3-3.6l-0.7,0.1L545,343l-3.9,5.6
	l-3.1-1.5l-3.1,2.6l-6.4-0.4l-2.8-2.2l-4,2.1l-0.2,1.4l-1.2,0.7l12.3,12.7l6.7,0.4l1,1.5l9.6,0.2l0.1-2.2l0.8-1.5l3.2-0.4l-4-5.8
	h-2.9l-0.8-4.1l2.4-1L549.1,350.3z"/>
<path id="sudan" class="st0" d="M552,310.6l-3.7,3.7l-25.8-0.2l0.3,6.6l-2.5-0.1l-0.2,11.8l-3.7,3.2l-0.2,4.9l2.7,5.3l2.9,1.7v0.4
	l4-2.1l3.1,2.4l5.6,0.3l3.3-2.7l2.9,1.4l3.2-4.7l0.3-1.6l2.5-0.5l0.4,4.5l2.5,4.2l6-12.9v-7.8l4.4-5.1L552,310.6z"/>
<path id="cameroon" class="st0" d="M477.8,364.3l3.2,3l-0.2,4.6l17.7-0.4l1.4-1.6l-5.1-5.5l-0.8-2l3.2-6l-2.2-4l-1.8-1v-2l2.1-1.4
	l0.1-6.3l-1.7-0.2v3.3l-7.4,13.9l-4.5,0.2l-3.1,2.1L477.8,364.3L477.8,364.3z"/>
<path id="eritrea" class="st0" d="M556.7,334.7l-0.2-5.9l4-4.6l1.1,0.8l2,6.5l9.4,7l-1.7,2.1l-6.8-5.9H556.7L556.7,334.7z"/>
<path id="djibouti" class="st0" d="M571.5,341.5l-0.6,3.4l4-0.1l0.1-4.9l-1.5-0.9L571.5,341.5L571.5,341.5z"/>
<path id="ethiopia" class="st0" d="M549.5,351.8l7.3-16.2h7.2l6.4,5.6l-0.5,4.6h5l0.5,2.8l8,4.8l5,0.2l-9.4,10.1l-13,4h-3.2
	l-5.7-4.9l-2.3-1l-4.4-6.5h-2.9l-0.3-3L549.5,351.8L549.5,351.8z"/>
<path id="somaliland" class="st0" d="M575.7,345l4.1,2.8l1.2-0.1l10.1-3.5l1.2,3.7l-0.8,3.1l-2.2,1.7l-5.5-0.4l-7.8-4.8L575.7,345
	L575.7,345z"/>
<path id="soqotra" class="st0" d="M599.6,339.6l2.1,2.4l2.9-1.7l1-0.4l-1.3-1.3l-2.5,0.8L599.6,339.6L599.6,339.6z"/>
<path id="somalia" class="st0" d="M592,344l4.4-1.7l1.5,0.9l-0.2,3.9l-4,11.5L571.9,382l-2.5-1.7l-0.2-9.9l3.3-3.8l7-2.1l10.2-10.8
	l2.7-2.4l0.8-3.5L592,344L592,344z"/>
<path id="centrafrique" class="st0" d="M495.7,364l4.7,5l1.8-2.4l2.9,0.1l0.6-2.3l2.9-1.8l6,4.1l3.5-3.4l13.4,0.6L519,351.2l1.7-1
	l0.2-2.3l-2.8-1.3H514l-6.7,6.6l-0.2,2.7l-5.3-0.2l-0.2,1.2l-3.5-0.4l-3.1,5.9L495.7,364L495.7,364z"/>
<path id="sao_tome" class="st0" d="M470.7,377.1l1.1-0.6l0.9,0.7l-0.9,1.3l-1-0.4L470.7,377.1L470.7,377.1z"/>
<path id="principe" class="st0" d="M473,373.5l1.7-0.3l0.6,1.1l-0.9,0.9l-0.9-0.1L473,373.5L473,373.5z"/>
<path id="bioko" class="st0" d="M476.8,367.4l-0.5,2l1.4,0.8l1.3-1l-0.5-2L476.8,367.4L476.8,367.4z"/>
<path id="gabon" class="st0" d="M486.4,372.6l-0.1,2.5l-5.6-0.1l-3.5,6.7l8.1,8.9l2-1.7l-0.1-1.7l-1.4-0.6v-1.2l3.1-2l2.8,2.1l3,0.1
	l-0.1-10.5l-4.8-0.2l-0.1-2.2L486.4,372.6L486.4,372.6z"/>
<path id="equatorial_guinea" class="st0" d="M481,372.7l-0.1,1.4l4.5,0.2l-0.1-1.6H481L481,372.7z"/>
<path id="congo" class="st0" d="M491,372.5l-0.1,1.5l4.8,0.1l0.2,12.4l-4.4-0.1l-2.5-2l-2,1.1l-0.1,0.5l1,0.5l0.3,2.5l-2.7,2.3
	l0.6,1.2l3-2.3h1.4l0.5,1.4l1.9,0.8l6.1-5.2l-0.1-3.8l1.3-3.1l3.9-2.9l1-9.8h-2.8l-3.2,4.4L491,372.5L491,372.5z"/>
<path id="cabinda" class="st0" d="M486.5,393.2l1.7,2.3l2.2-2.1l-0.7-2.2h-0.6L486.5,393.2L486.5,393.2z"/>
<path id="drc" class="st0" d="M489.4,395.7l10.3-0.2l2.1,3l-0.1,2.2l0.8,0.7h5.1l1.5-2.9h2.1l0.9,0.9l2.9-0.1l0.8,10.1l5,0.2v0.8
	l13.3,6l0.6,1.2h2.8l-0.3-4.2l-5-2.4l0.3-3.2l2.2-5.1l5-0.2l-4.3-14.1l0.1-6l6.7-10.5l0.1-1.5l-1-0.5V367l-1.2-0.1l-1.2-1.6
	l-20.3-0.9l-3.7,3.6l-6.1-4l-2.1,1.3l-1.6,13.1l-3.9,3L500,384l0.2,3.9l-7,5.7l-1.9-0.8l0.2,1.1L489.4,395.7L489.4,395.7z"/>
<path id="rwanda" class="st0" d="M537.8,379.9l2.8,2.6l-0.1,2.8l-4.4,0.1v-3.1L537.8,379.9L537.8,379.9z"/>
<path id="burundi" class="st0" d="M536.2,386.2l4.3-0.1l-1.1,3.7l-1.1,0.9H537l-0.9-2.5L536.2,386.2L536.2,386.2z"/>
<path id="uganda" class="st0" d="M538.3,379.1l3,2.8l1.9-1.2l5.1-0.8l0.9,0.1l0.3-2l2.9-6.1l-2.4-5.1h-7.9v2.1l1.1,1L543,372
	L538.3,379.1L538.3,379.1z"/>
<path id="kenya" class="st0" d="M550.8,366.5l2.7,5.2l-3.2,6.7l-0.4,2l15.9,9.9l4.9-7.8l-2.5-2v-10.2l3.1-3.4l-5,1.7h-3.8l-5.9-5
	l-1.9-0.8l-3.5,0.3l-0.6,1L550.8,366.5L550.8,366.5z"/>
<path id="tanzania" class="st0" d="M550.6,411.4l17.5-2.1l-3.9-7.6l-0.2-7.3l1.3-3.5l-16.6-10.4l-5.2,0.9l-1.8,1.3l-0.2,3l-1.2,4.2
	l-1.2,1.5l-1.8,0.2l3.3,11.6l5.5,2.6l3.8,0.1L550.6,411.4L550.6,411.4z"/>
<path id="zambia" class="st0" d="M514.5,424.7l3.2,4.4l4.9,0.3l1.7,1l5.1,0.1l4.4-6.2l12.4-5.5l1.1-4.9l-1.4-7l-6.5-3.7l-4.3,0.3
	l-2.2,4.8l0.1,2.2l5.1,2.5l0.3,5.4l-4.4,0.2l-1.1-1.8l-12.1-5.2l-0.4,4l-5.7,0.2L514.5,424.7L514.5,424.7z"/>
<path id="angola" class="st0" d="M488.6,396.7l3.4,12.7l-0.1,4l-5,5.4l-0.8,8.7l19.2,0.2l6.2,2.3l5.2-0.7l-3-3.8v-10.7l5.9-0.2v-4.2
	l-4.8-0.2l-1-9.9h-2l-1.1-1l-1.2,0.1l-1.6,3.1H502l-1.4-1.4l0.4-2l-1.7-2.4H488.6L488.6,396.7z"/>
<path id="malawi" class="st0" d="M547.2,419.4l3.1,3.2l-0.1,4.2l0.6,1.8l4.1-4.5l-0.5-5.7l-2.2-1.7l-2-10l-3.4-0.1l1.5,7.2
	L547.2,419.4L547.2,419.4z"/>
<path id="mozambique" class="st0" d="M541.2,453.3l2.7,2.2l6.3-3.9l1-5.7v-9.5l10.2-8.3l1.7,0.1l6.2-5.9l-1-12.2l-16.3,2.1l0.5,3.7
	l2.8,2.2l0.7,6.6l-5.5,5.4l-1.3-3l0.2-4l-3.2-3.4l-7.8,3.6l7.2,3.7l0.2,10.7l-4.8,7.1L541.2,453.3L541.2,453.3z"/>
<path id="zimbabwe" class="st0" d="M524.7,432.3l9,10.1l6.9,1.8l4.6-7.2l-0.4-9.6l-7.5-3.9l-2.8,1.3l-4.2,6.4l-5.8-0.1L524.7,432.3
	L524.7,432.3z"/>
<path id="namibia" class="st0" d="M496.5,462l3.4,0.2l2,2l4.7,0.1l1.1-13.3v-8.7l3-0.6l1.1-9.1l7.6-0.2l2.7-2.2l-4.5-0.2l-6.2,0.8
	l-6.6-2.4h-18.7l0.5,5.3l6.2,9.2l-1.1,4.7l0.1,2.5L496.5,462L496.5,462z"/>
<path id="botswana" class="st0" d="M508.5,451.2l2.1,0.7l-0.3,6.1l2.2,0.3l5.1-4.6l6.1,0.7l1.6-4.1l7.7-7l-9.3-10.7l-0.1-1.8l-1-0.3
	l-2.8,2.6l-7.3,0.2l-1,9.1l-2.9,0.7L508.5,451.2L508.5,451.2z"/>
<path id="swaziland" class="st0" d="M540.9,454l-2.5,0.4l-1.1,3l1.9,1.8h2.3l2-2.8L540.9,454L540.9,454z"/>
<path id="lesotho" class="st0" d="M527.4,465.4l3-2.4l1.4,0.1l1.7,2.2l-0.2,2.2l-2.9,1.1v0.8l-3.2-0.2l-0.8-2.4L527.4,465.4
	L527.4,465.4z"/>
<path id="south_africa" class="st0" d="M534.2,443.6l-7.9,7.3l-1.9,4.5l-6.3-0.8l-5.2,4.6l-3.5-0.3l0.3-6.4l-1.2-0.4l-0.9,13.1
	l-6.1-0.1l-1.9-2.2h-2.7l2.5,7.1l4.4,4.2l-3.1,3.7l2,4.6l4.7,1.8l3.8-3.2l10.8,0.1l0.8-1l4.8-0.8l16.2-16.1l-0.1-5.1l-1.7,2.2h-2.6
	l-3.2-2.6l1.6-4l2.8-0.6l-0.2-8.2L534.2,443.6L534.2,443.6z M530.4,462.1l1.5-0.1l2.5,2.7l-0.1,3.1l-2.9,1.5l-0.2,1h-4.4l-1.4-3.3
	l1.2-2.4L530.4,462.1L530.4,462.1z"/>
<path id="greenland" class="st0" d="M321.1,90.1l-1.4,2.2l2.5,2.5l-1.1,2.5l3.5,4.6l4.4-1.4l5.7-0.5l6.5,7.1l4.4,11.7l-3.5,7.3
	l4.9-0.8l2.7,1.6l0.3,3.5l-6,0.3l3.3,3.3l4.1,0.8l-9,12l-1.1,7.3l1.9,6l-1.4,3.5l2.5,7.6l4.6,5.2l1.4-0.3l3-0.8l0.3,4.4l1.9,2.7
	l3.5-0.3l2.7-10.1l8.2-10.1L382,157l7.6-9.5l3.5,1.6h7.3l6-6l7.3-3l0.8-4.6l-4.6-4.1L406,130l-2.2-5.7l5.2-3l8.2,4.3l2.7-3l-4.4-2.4
	l9.2-12.5l-1.6-5.4l-4.4-0.3l1.6-4.9l5.4-2.5l11.1-9.8l-3.3-3.5L421,82.4l-6.5,6.5l3.8-8.4l-4.4-1.1l-2.5,4.3l-3.5-3l-9.8,1.1
	l2.7-4.3l16-0.5l-4.1-5.4l-17.4-3.3l-7.1,1.1l0.3,3.5l-7.3-2.5l0.3-2.5l-5.2,1.1l-1.1,2.7l5.4,1.9l-5.7,4.1l-4.1-4.6l-5.7-1.6
	l-0.8,4.4h-5.7l-2.2-4.6l-9-1.4l-4.9,2.5l-0.3,3.3l-6.2-0.8l-3.8,1.6l0.3,3.8v1.9l-7.1,1.4l-3.3-2.2l-2.2,3.5l3.3,3.5l6.8-0.8
	l0.5,2.2l-5.2,2.5L321.1,90.1L321.1,90.1z"/>
<path id="disko" class="st0" d="M342.9,132.5l1.6,2.4l-0.8,3h-1.6l-2.2-2.4l0.5-1.9L342.9,132.5L342.9,132.5z"/>
<path id="milne" class="st0" d="M410.9,125.7l4.6,1.4l-0.3,3.8l-4.9-2.4l-1.1-1.4L410.9,125.7L410.9,125.7z"/>
<path id="australia" class="st0" d="M761.2,468l-0.3,25.4l-3.9,2.9l-0.3,2.5l5.3,3.6l13.1-2.5h6.7l2.5-3.6l14.9-2.9l10.6,3.2
	l-0.7,4.3l1.4,4.3l8.2-1.4l0.3,2.1l-5.3,3.9l1.8,1.4l3.9-1.4l-1.1,11.8l7.5,5.7l4.3-1.4l2.1,2.1l12.4-1.8l11.7-19l4.3-1.1l8.5-15.7
	l2.1-13.6l-5.3-6.8l2.1-1.4l-4.3-13.2l-4.6-3.2l0.7-17.9l-4.3-3.2l-1.1-10h-2.1l-7.1,23.6l-3.9,0.4l-8.9-8.9l5-13.2l-9.2-1.8
	L818,424l-2.8,8.2l-4.6,1.1l-0.3-5.7L791.4,439l0.3,4.3l-2.8,3.9h-7.1l-15.3,6.4L761.2,468L761.2,468z"/>
<path id="tasmania" class="st0" d="M825.7,536.3l-1.8,7.1l0.3,5l5.3-0.4l6-9.3L825.7,536.3L825.7,536.3z"/>
<path id="new_zealand_north_island" class="st0" d="M913,522l1.1,11.8l-1.4,5.4l-5.3,3.9l0.3,4.6v5l1.4,1.8l14.5-12.5v-2.9h-3.5
	l-5-16.8L913,522L913,522z"/>
<path id="new_zealand_south_island" class="st0" d="M902.4,547.7l2.8,5.4l-7.8,7.5l-0.7,3.9l-5.3,0.7l-8.9,8.2l-8.2-3.9l-0.7-2.9
	l14.9-6.4L902.4,547.7L902.4,547.7z"/>
<path id="new_caledonia" class="st0" d="M906.6,460.5l-0.3,1.8l4.6,6.4l2.5,1.1l0.3-2.5L906.6,460.5L906.6,460.5z"/>
<path id="sumatra" class="st0" d="M722.5,357.6l-0.3,2.3l6.8,11.4h2l14.2,23.7l5.7,0.6l2.8-8.3l-4.5-2.9l-0.8-4.6L722.5,357.6
	L722.5,357.6z"/>
<path id="east_malaysia" class="st0" d="M764.1,372.9l3,3.5l11.6-4l2.3-8.8l5.2-0.4l4.7-3.4l-6.1-4.5l-1.4-2.5l-3,5.6l1.1,3.2
	l-1.8,2.7l-3.5-0.9l-8.4,6.2l0.2,3.6L764.1,372.9L764.1,372.9z"/>
<path id="brunei" class="st0" d="M779.8,359.2l-2.9,3.5l2.4,0.7l1.3-1.9L779.8,359.2L779.8,359.2z"/>
<path id="sulawesi" class="st0" d="M789.5,389.1l2.3,2.8l-1.5,4.2v0.8h3.3l1.2-10.4l1.1,0.3l2,9.5l1.9,0.5l1.8-4.1l-1.8-6.1
	l-1.5-2.7l4.6-3.4l-1.1-1.5l-4.4,2.9h-1.2l-2.2-3.2l0.7-1.4l3.6-1.8l5.5,1.7l1.7-0.1l4.1-3.9l-1.7-1.7l-3.8,3h-2.5l-3.7-1.8
	l-2.7,0.1l-3,4.8l-1.9,8.2L789.5,389.1L789.5,389.1z"/>
<path id="maluku" class="st0" d="M814.2,370.5l-1.9,4.5l3,3.9h1l1.3-2.6l0.7-0.9L817,374l-1.9-0.7L814.2,370.5L814.2,370.5z"/>
<path id="seram" class="st0" d="M820,385.5l-4,0.9l-1.2,1.3l1,1.7l2.7-1l1.7-1l2.5,2l1.1-0.9l-2-2.4L820,385.5L820,385.5z"/>
<path id="java" class="st0" d="M753.2,398.3l-2.8,1.9l0.6,1.6l8.8,2l4.4,0.8l1.9,2l5,0.4l2.4,2l2.2-0.5l2-1.8l-3.6-1.7l-3.1-2.7
	l-8.2-2L753.2,398.3L753.2,398.3z"/>
<path id="bali" class="st0" d="M781.8,406.9l-2.2,1.2l1.3,1.4l3.1-1.2L781.8,406.9L781.8,406.9z"/>
<path id="lombok" class="st0" d="M785.5,406l0.4,1.9l2.3,0.6l0.9-1.1l-1-1.5L785.5,406L785.5,406z"/>
<path id="sumba" class="st0" d="M790.9,411l-2.8,0.4l2.5,2.1h2L790.9,411L790.9,411z"/>
<path id="flores" class="st0" d="M791.7,407.7l-0.6,1.2l4.4,0.7l3.4-2l-2-0.6l-3.1,0.9l-1.2-1L791.7,407.7L791.7,407.7z"/>
<path id="timor" class="st0" d="M806.1,408.4l-5.1,4.3l0.5,1.1l2.2-0.4l2.5-2.4l5-0.7l-1-1.7L806.1,408.4L806.1,408.4z"/>
<path id="new_ireland" class="st0" d="M880.5,389l-0.9,1.2l4.8,4.3l0.7,2.5l1.3-0.1l0.2-2.6l-1.5-1.3L880.5,389L880.5,389z"/>
<path id="new_britain" class="st0" d="M882.9,395l-1,0.2l-0.6,2.6l-1.8,1.2l-5.5,1l0.2,2.1l5.8-0.3l3.7-2.3l-0.2-4L882.9,395
	L882.9,395z"/>
<path id="bougainville" class="st0" d="M889.4,399.5l1.2,3.5l2.2,2.1l0.7-0.6l-0.2-2.3l-2.5-3L889.4,399.5L889.4,399.5z"/>
<path id="choiseul" class="st0" d="M895.4,404.6l0.2,2.3l1.4,1.3l1.3-0.8l-1.2-2.4L895.4,404.6L895.4,404.6z"/>
<path id="new_georgia" class="st0" d="M897.2,410.3l-1.2,1.2l1.2,2.3l1.5,0.4l-0.1-1.5L897.2,410.3L897.2,410.3z"/>
<path id="santa_isabel" class="st0" d="M900,409l1,2.5l2,2.4l1.1-1.8l-1.5-2.5L900,409L900,409z"/>
<path id="malaita" class="st0" d="M905.1,412.7l0.6,3.1l1.4,1.9l1.2-2.4L905.1,412.7L905.1,412.7z"/>
<path id="santa_ana" class="st0" d="M906.7,419.6l-0.5,0.9l1.7,2.2l1.2,0.1l-0.7-2.9L906.7,419.6L906.7,419.6z"/>
<path id="rennell" class="st0" d="M903,424l-1.8,0.8l1.5,2.1l1.3-0.7L903,424L903,424z"/>
<path id="espiritu_santo" class="st1" d="M920.9,437.2l-1.2,1.7l0.5,1.9l0.6,0.4l1.1-1.5L920.9,437.2L920.9,437.2z"/>
<path id="malakula" class="st1" d="M921.5,442.3l0.1,1.4l1.3,0.4l0.9-0.5l-0.9-1.5L921.5,442.3L921.5,442.3z"/>
<path id="efate" class="st2" d="M923.5,454.4l-0.6,0.9l0.9,1l1.5-0.5L923.5,454.4L923.5,454.4z"/>
<path id="fiji" class="st2" d="M948.6,452.3l-1.2,1.7l-0.1,1.9l1.4,1.5L948.6,452.3L948.6,452.3z"/>
<path id="palawan" class="st0" d="M789.4,337.5l-0.9,1.6l-0.5,2l-4.8,6.1l0.3,1.2l2-0.3l6.2-6.9L789.4,337.5L789.4,337.5z"/>
<path id="negros" class="st0" d="M797.1,335.2l-0.1,5l1.8,1.8l0.7,3.6l1.8,0.4l0.9-2.2l-1.4-1.1l-0.4-6.3L797.1,335.2L797.1,335.2z"
	/>
<path id="cebu" class="st0" d="M802.3,337.1l-0.1,4.4l1,1.7l1.8-2.1l-0.5-3.9L802.3,337.1L802.3,337.1z"/>
<path id="samar" class="st0" d="M803.4,333.3l1.8,2.4l0.9,2.3h1.6l-0.3-4l-1.8-1.2L803.4,333.3L803.4,333.3z"/>
<path id="path7462" class="st0" d="M807,342.4l0.4,2.9l-3.3,2.7l-2.8,0.3l-3,3.2l0.1,1.5l2.8-0.9l1.9-1.2l1.6,4.1l2.9,2l1.2-0.4
	l1-1.2l-2.3-2.3l1.3-1.1l1.5,1.2l1-1.7l-1-2.1l-0.2-4.7L807,342.4L807,342.4z"/>
<path id="luzon" class="st0" d="M791.4,313l-2.6,1.8l-0.3,5.8l4,7.8l1.3,1.1l1.7-1.2l3,0.5l0.6,2.6l2.2,0.2l1-1.4l-1.3-1.8l-1.6-1.5
	l-3.4-0.4l-1.8-3l2.1-3.2l0.2-2.8l-1.4-3.6L791.4,313L791.4,313z"/>
<path id="mindoro" class="st0" d="M792.7,330.2l0.8,2.7l1.3,0.9l1-1.2l-1.5-2.1L792.7,330.2L792.7,330.2z"/>
<path id="hainan" class="st0" d="M759.8,310.2l-2.4,0.7l-1.7,2.1l1.4,2.8l2.1,0.2l2.4-2.1l0.6-2.8L759.8,310.2L759.8,310.2z"/>
<path id="taiwan" class="st0" d="M787.5,288.3L784,291l-0.2,5.2l3.1,3.6l0.8-0.7L787.5,288.3L787.5,288.3z"/>
<path id="kyushu" class="st0" d="M803.2,256.4l-1.6,1.6l0.7,2.3l1.4,0.1l1,5l1.2,1.2l2-1.8l0.9-3.3l-2.5-3.6L803.2,256.4
	L803.2,256.4z"/>
<path id="shikoku" class="st0" d="M812,253.1l-2.8,2.6l-0.1,3l0.7,0.9l3.7-3.2l-0.3-3.2L812,253.1L812,253.1z"/>
<path id="honshu" class="st0" d="M808.2,247l-4.9,5.6l0.9,1.4l2.4,0.3l4.5-3.5l3.2-0.6l2.9,3.4l2.2-0.8l0.9-3.3l4.1-0.1l4-4.8
	l-2.1-8l-1-4.2l2.1-1.7l-4.8-7.2l-1.2,0.1l-2.6,2.9v2.4l1.2,1.4l0.4,6.4l-3,3.7l-1.7-1.1l-1.3,3l-0.3,2.8l1,1.6l-0.7,1.2l-2.2-1.8
	h-1.5l-1.3,0.8L808.2,247L808.2,247z"/>
<path id="hokkaido" class="st0" d="M816.4,203.4l-1.5,1.4l0.8,2.9l1.3,1.4l-0.1,4.4l-1.7,0.7l-1.3,3l3.9,5.4l2.6-0.9l0.5-1.4
	l-2.8-2.5l1.7-2.2l1.8,0.3l1.4,1.5l0.1-3.2l3.9-3.2l2.2-0.6l-1.8-3.1l-0.9-1.4l-1.4,1l-1.2,1.5l-2.7-0.6l-2.8-1.8L816.4,203.4
	L816.4,203.4z"/>
<path id="iturup" class="st0" d="M830.9,200.4l-2.7,3.8l0.2,1.8l1.3-0.6l3.2-3.9L830.9,200.4L830.9,200.4z"/>
<path id="urup" class="st0" d="M834.4,195l-1,2.6l0.1,1.7l1.6-1.1l1.5-3.1V194L834.4,195L834.4,195z"/>
<path id="paramushir" class="st0" d="M840,172l-1.2,1.5l0.1,2.4l1.2-0.1l1.9-3.4L840,172L840,172z"/>
<path id="onekotan" class="st0" d="M837.8,177.9v4.2l1.3,0.5l1-1.5v-3.3L837.8,177.9L837.8,177.9z"/>
<path id="sakhalin" class="st0" d="M798.6,162.6l-0.1,6.2l7.7,11.9l2.8,10.4l4.9,9.2l1.9,0.7l1.6-1.4l0.8-2.2l-7-7.6l0.2-3.9
	l1.5-0.7l0.4-2.3l-13.7-19.4L798.6,162.6L798.6,162.6z"/>
<path id="bering_island" class="st0" d="M852.6,143.4l-1.9,0.2l1.2,1.6l2.4,1.6l0.7-0.8L852.6,143.4L852.6,143.4z"/>
<path id="medny" class="st0" d="M856.3,144.6l0.3,1.6l3,0.9l0.3-1.2L856.3,144.6L856.3,144.6z"/>
<path id="attu" class="st0" d="M872.5,150.9l1.2,2.2l2.1-0.1l0.4-1.5L872.5,150.9L872.5,150.9z"/>
<path id="st._lawrence_island" class="st0" d="M881.3,78.4l-2.4,1.5l-0.6,2l1.1,1.3l2.5-0.8l2.5,0.8l1.4,0.4l-0.1-4.6L881.3,78.4
	L881.3,78.4z"/>
<path id="st._lawrence_island_west" class="st0" d="M69.2,93.3l3.5,6.5l2.2-0.5v-2.2L69.2,93.3L69.2,93.3z"/>
<path id="unalaska_west" class="st3" d="M49.7,150.3l-0.2,3l2.2-0.5v-1.3L49.7,150.3L49.7,150.3z"/>
<path id="umnak_west" class="st3" d="M46.3,151.6l-4.3,2.2l0.7,2.3l1.7-1.3l3.3-1.5L46.3,151.6L46.3,151.6z"/>
<path id="another_aleutian_west" class="st3" d="M28.4,154.4l-3-0.7l-0.5,1.3l0.3,2.5L28.4,154.4L28.4,154.4z"/>
<path id="adak_west" class="st3" d="M22.1,154.3l-2.8-1.2l-1,1.8l1.8,1.8L22.1,154.3L22.1,154.3z"/>
<path id="amchitka_west" class="st3" d="M12.3,151.6l-1.3-1.8l-1.3,0.5v2.5l1.5,1L12.3,151.6L12.3,151.6z"/>
<path id="attu_west" class="st3" d="M1.5,139.7l1.7,1.2l-0.5,1.3H1.5V139.7L1.5,139.7z"/>
<path id="kerguelen" class="st0" d="M622.8,539.6l-0.2,4.3l5.9,1.4l1.4-3.5l-2.1,0.6L625,543l-0.8-3.2L622.8,539.6L622.8,539.6z"/>
<path id="mauritius" class="st0" d="M613,439l-1.5,2l0.3,2.1l3.2-2.6L613,439L613,439z"/>
<path id="reunion" class="st0" d="M607.4,442.4l-2.3,0.1l-0.2,2l1.5,0.3l2.3-1.1L607.4,442.4L607.4,442.4z"/>
<path id="madagascar" class="st0" d="M592.3,412.9l-2.1,5.1l-3.7,6.4l-6.4,0.5l-2.7,3.2l0.5,9.8l-4,4.6l0.5,7.8l3.3,3.8l4-0.5l4-2.9
	l-0.9-4.6l9.1-15.8l-1.8-2l1.8-3.8l2,0.6l0.6-1.5l-1.8-7.8l-1.1-3.2L592.3,412.9L592.3,412.9z"/>
<path id="grande_comore" class="st0" d="M577.7,411.2l0.5,1.5l2,0.3l0.8-2L577.7,411.2L577.7,411.2z"/>
<path id="mayotte" class="st0" d="M580.6,414.3l0.8,1.7h1.2l0.6-2.1L580.6,414.3L580.6,414.3z"/>
<path id="aldabra" class="st0" d="M602.3,398.3l-0.6,1.2l1.7,1.4l1.2-1.4L602.3,398.3L602.3,398.3z"/>
<path id="praslin" class="st0" d="M610.9,389.1l-1.8,1.2l1.4,2.1h1.8L610.9,389.1L610.9,389.1z"/>
<path id="mahe" class="st0" d="M611.6,394.5l-1.2,1.4l0.9,1.4l1.7,0.3l0.2-2.9L611.6,394.5L611.6,394.5z"/>
<path id="male" class="st0" d="M656.4,360.8l0.3,2.6l1.7,0.6l0.3-2.3L656.4,360.8L656.4,360.8z"/>
<path id="maldive" class="st0" d="M658.5,366.3l-0.2,3.2l1.2,0.6l1.1-2.1L658.5,366.3L658.5,366.3z"/>
<path id="gan" class="st0" d="M658.8,372.6l-1.1,1.1l1.2,1.1l1.5-1.1L658.8,372.6L658.8,372.6z"/>
<path id="path151" class="st0" d="M372.6,257l-1.4,1.4l2.4,1.4l0.3-1.9L372.6,257L372.6,257z"/>
<path id="terceira" class="st0" d="M380,256.2l-1.6,1.1l1.4,1.1l2.2-0.6L380,256.2L380,256.2z"/>
<path id="pico" class="st0" d="M381,260l-0.8,2.2l1.1,1.4l1.4-1.1L381,260L381,260z"/>
<path id="sao_miguel" class="st0" d="M387.6,264.4l-0.5,1.4l0.8,0.8l2.2-1.4L387.6,264.4L387.6,264.4z"/>
<path id="madeira" class="st0" d="M408.2,276.4l-1.1,1.4l1.1,1.4l1.6-0.8L408.2,276.4L408.2,276.4z"/>
<path id="lanzarote" class="st0" d="M415.6,293.7l-1.8,1l0.8,0.8L415.6,293.7L415.6,293.7z"/>
<path id="gran_canaria" class="st0" d="M409.5,293.9l-2.2,0.6l1.1,1.6h1.6L409.5,293.9L409.5,293.9z"/>
<path id="tenerife" class="st0" d="M404.4,292.3l-1.4,1.4l1.9,1.6l1.1-2.5L404.4,292.3L404.4,292.3z"/>
<path id="santo_antao" class="st0" d="M387.6,330.5l-1.9,1.1l1.4,1.1l1.6-0.8L387.6,330.5L387.6,330.5z"/>
<path id="boa_vista" class="st0" d="M392.2,332.7l-1.2,1.1l0.9,1.6l2.1-1L392.2,332.7L392.2,332.7z"/>
<path id="santiago" class="st0" d="M389.5,335.8l-1.6,1l1.7,2.3l1.4-0.7L389.5,335.8L389.5,335.8z"/>
<path id="kauai" class="st3" d="M10,288.7L9.9,291l2,1.4l1.2-1.1L10,288.7L10,288.7z"/>
<path id="oahu" class="st3" d="M15.3,292.1l-1.9,1.4l1.6,2.1l1.9-1.6L15.3,292.1L15.3,292.1z"/>
<path id="kahului" class="st3" d="M19.1,295.4l-1.6,2.2L18,299l2.3-1.1L19.1,295.4L19.1,295.4z"/>
<path id="hawaii" class="st3" d="M21.8,299.6l-1,5.5l1,2l3.1-1l1.6-2.7l-3.4-3.1L21.8,299.6L21.8,299.6z"/>
<path id="raiatea" class="st3" d="M27.2,442.7l-1.9-0.1l-0.1,1.8l1.5,1l1.8-1.1L27.2,442.7L27.2,442.7z"/>
<path id="tahiti" class="st3" d="M33.8,444.6l-2.7,1.8l2,2.5l1.8-0.4l1-1.2L33.8,444.6L33.8,444.6z"/>
<path id="guadeloupe" class="st0" d="M276.6,323.4l-1.5,0.6l0.5,1.3l1.8-1.1l-0.4-0.4L276.6,323.4L276.6,323.4z"/>
<path id="dominica" class="st0" d="M279.1,324.9l-0.9,1.9l1.1,1.4l1.3-1.1L279.1,324.9L279.1,324.9z"/>
<path id="martinique" class="st0" d="M282.1,330l-1.1,1l0.8,1.6l1.5-0.4L282.1,330L282.1,330z"/>
<path id="st._lucia" class="st0" d="M282,334l-0.7,1.5l1.1,1.2l1.5-0.8L282,334L282,334z"/>
<path id="st._vincent" class="st0" d="M282.1,337.9l-1.2,0.9l1,1.8l1.6-0.9L282.1,337.9L282.1,337.9z"/>
<path id="grenada" class="st0" d="M280.6,341.3l-1.1,1.1l0.4,0.7h1.4l0.4-1.2L280.6,341.3L280.6,341.3z"/>
<path id="trinidad" class="st0" d="M282.2,344.8l-1.1,1L280,346v1.4l2.1,2l0.9-1.4l0.5-1.6l-0.2-1.3L282.2,344.8L282.2,344.8z"/>
<path id="puerto_rico" class="st0" d="M271,321.1l-2.6-0.9l-2.1,1.3l1.1,1.2l3.6,0.5V321.1L271,321.1z"/>
<path id="haiti-dominican_border" class="st0" d="M250.9,315.4l-1.7,1.7l1.9,0.8l0.3,2.4l-4.2,0.4l0.4,2.3l1.2,0.1l0.7-1.1l4.9,0.2
	l0.9,1.7l1.1-1.3l3.3-0.9l2.9,0.6l0.3-1.8l-5.3-3.5l-3.4-1.3L250.9,315.4L250.9,315.4z"/>
<path id="domincan_republic" class="st0" d="M263.1,320.4l-5.3-3.5l-2.5-0.9l-0.8,6l0.9,1.7l1.1-1.3l3.4-0.9l2.9,0.6L263.1,320.4
	L263.1,320.4z"/>
<path id="haiti" class="st0" d="M250.9,315.4l3.4,0.4l-0.4,4.2l-0.3,2.2l-4-0.2l-0.7,1.1l-1.2-0.1l-0.4-2.3l4.2-0.4l-0.3-2.4
	l-1.9-0.8L250.9,315.4L250.9,315.4z"/>
<path id="falklands_west" class="st0" d="M308,548.2l-2.6-0.3l-2.6,1.8l1.9,2.1L308,548.2L308,548.2z"/>
<path id="falklands_east" class="st0" d="M310.6,546.9l-0.9,2.8l-2.5,2.2l0.1,0.7l4.2-1.6l1.8-2.2L310.6,546.9L310.6,546.9z"/>
<path id="iceland" class="st0" d="M406.4,157.3l-2-1.1l-2.6,1.7l-2.3,2.1l0.1,1.2l2.9,0.4l-0.2,2.1l-1,1.1l0.2,0.7l2.9,0.2v3.4
	l4.2,0.7l2.5,1.4l2.8,0.1l4.8-2.4l3.7-4.9l0.1-3.3l-2.3-1.9l-1.9-1.6l-0.9,0.6l-1.3,1.7l-1.5-0.2l-1.5-1.6l-1.9,0.2l-2.8,2.3
	l-1.7,1.8l-0.9-0.8l-0.1-2l0.9-0.6L406.4,157.3L406.4,157.3z"/>
<path id="spitsbergen" class="st0" d="M488.3,94l-1.6-1.7l-3.7,1.8h-6.7l-1.1,3.9l3.8,3.3l1.6-0.2l2.4-4l2,1.4l-1.4,2.8l-0.7,4.2
	l1.6,2.6l3.5-5.9l4.6-5.6l-1.8-1.5L488.3,94L488.3,94z"/>
<path id="nordaustlandet" class="st0" d="M490.3,86.8l-3,2.7l1.8,2.7h3.2l1.3,1.8l3.9,2l4.5-2.6l3.1-2.6l-1.1-2.1l-3.1-1.8l-2.2,2
	l-1.5-1.9l-1.2,0.1l-1.5,3.3l-2.2-2.3l-0.2-1.5L490.3,86.8L490.3,86.8z"/>
<path id="edgeoya" class="st0" d="M497,99.1l-2.4,2.1l-2,1.5l0.9,1.7l1.9,0.6l3.1-1.4l1.4-1.8l-1.3-2.1L497,99.1L497,99.1z"/>
<path id="prince_george" class="st0" d="M547.8,78.8l1.7,0.7l-1.2,2.1v3l-2.6,1.6H543l-1.5-1.9l0.2-2.1l1.2-1.6h2.4L547.8,78.8
	L547.8,78.8z"/>
<path id="salisbury" class="st0" d="M554.4,76.9V79l1.7,1.4l2.4-0.2l2.1-1.9v-1.4h-1.9l-1.5,0.5L556,76L554.4,76.9L554.4,76.9z"/>
<path id="wilczek" class="st0" d="M564.2,77.1l1.2,2.6l2.4,0.2l1.7-0.7l-0.9-2.4l-2.2-0.5L564.2,77.1L564.2,77.1z"/>
<path id="bell" class="st0" d="M574,73.6l-1.9-0.3l-1.7,1.7l0.9,1.6l0.5,2.4l2.2-1.7l0.5-1.9L574,73.6L574,73.6z"/>
<path id="novaya_zemlya_north" class="st0" d="M584.5,92l-0.5,2.4l-4,3.5l-8.4,1.9l-6.9,11.4l-1.2,3.3l6.9,1.7l1-4.2l2.1-6.4
	l5.3-2.8l4.5-3.5l3.3-1.4h1.7v-4.7L584.5,92L584.5,92z"/>
<path id="novaya_zemlya_south" class="st0" d="M562.3,117.3l4.7,0.5l1.5,5.4l4,4.2l-1.4,2.8h-2.4l-2.2-2.6l-5-0.2l-2.1-2.8v-1.9
	l3.1-0.9L562.3,117.3L562.3,117.3z"/>
<path id="komsomolets" class="st0" d="M635,58.1l-2.2-1.4h-2.6l-0.5,1.6l-2.8,1.6l-2.1,0.7l-0.3,2.1l4.8,0.4L635,58.1L635,58.1z"/>
<path id="october" class="st0" d="M640.3,58.7l-1.2,2.6l-2.4-0.2l-3.8,2.8l-1,3.5h2.4l1.4-2.3l3.3,2.4l3.1-1.4l2.2-1.9l-0.9-3
	l-1.2-2.1L640.3,58.7L640.3,58.7z"/>
<path id="bolshevik" class="st0" d="M645.3,60.6l1.2,4.9l1.9,4.5l2.1-3.6l4-0.9v-2.6l-2.6-1.9L645.3,60.6L645.3,60.6z"/>
<path id="kotelny" class="st0" d="M739.8,52.8l2.7,2.3l1.9-0.8l0.6-3.2l-4-2.7l-2.6,1.7l-6.3,0.6v2.8l-6.6,0.1v4.6l7.7,5.8l2-1.5
	l-0.5-4.1l4.9-1.2l-1-1.9l-1.8-1.8L739.8,52.8L739.8,52.8z"/>
<path id="novaya_sibir" class="st0" d="M746.9,50.1l1.8,3.4l7-0.8l1.9-2.5l-0.5-2.1l-1.9-0.8l-1.8,1.4l-5.2,1.1L746.9,50.1
	L746.9,50.1z"/>
<path id="lyakhovsky" class="st0" d="M746.5,63.3l-3.5-0.9l-2,2.1l-0.9,2.9l4.7-0.5l3.6-1.8L746.5,63.3L746.5,63.3z"/>
<path id="wrangel" class="st0" d="M836.7,43.8l-2.9-0.9l-3.4,1.2l-1.7,2.5l2.1,2.8l5.6-2.5l1.1-1.2L836.7,43.8L836.7,43.8z"/>
<path id="sri_lanka" class="st0" d="M680.5,348l0.2,2.7l0.2,2l-1.5,0.2l0.7,4.5l2.2,1.2l3.4-2l-1-4.7l0.2-1.7l-3.2-3L680.5,348
	L680.5,348z"/>
<path id="cuba" class="st0" d="M220.9,306.9v1.3l5.3,0.1l2.5-1.5l0.4,1.1l5.2,1.3l4.6,4.2l-1.1,1.5l0.2,1.7l3.9,1l3.9-1.8l1.7-1.8
	l-2.5-1.3l-12.9-7.6l-4.5-0.5L220.9,306.9L220.9,306.9z"/>
<path id="bimini" class="st0" d="M239.6,299.1l-1.3-0.4l-0.1,2.4l1.6,1.6l1.1-1.6L239.6,299.1L239.6,299.1z"/>
<path id="andros" class="st0" d="M242.1,302.9l-1.7,1l1.6,2.3l0.9-1.2L242.1,302.9L242.1,302.9z"/>
<path id="inagua" class="st0" d="M247.7,304.7l-1.8-0.1l0.2,1.2l1.4,2l1.2-1.3L247.7,304.7L247.7,304.7z"/>
<path id="eleuthera" class="st0" d="M246.9,302.4l-3-1.3l-0.6-3l1.2-0.5l1.2,2.3l1.2,0.9L246.9,302.4L246.9,302.4z"/>
<path id="grand_bahama" class="st0" d="M244,296.2l-1.6-0.4l-0.3-1.9l-1.6-0.6l1.1-1.1l1.9,0.7l1.4,0.9L244,296.2L244,296.2z"/>
<path id="jamaica" class="st0" d="M238.9,319.6l-3.5,0.9v1l2,1.2h2.1l1.4-1.6L238.9,319.6L238.9,319.6z"/>
<path id="irian_jaya" class="st0" d="M831.9,379.3l-4.2,0.5l-2.7,2l1.1,2.2l4.5,0.8v0.8l-2.9,2.3l1.4,4.9l1.4,0.1l1.2-4.8h2.2
	l0.9,4.7l10.8,9l0.3,7l3.7,4l1.7-0.1l0.4-24.7l-6.3-4.4l-5.9,4l-2.1,1.3l-3.5-2.2l-0.1-7.1L831.9,379.3L831.9,379.3z"/>
<path id="alaska-westcopy" class="st0" d="M93.1,84.9l-8.4,2l1.7,9.5l9.1,2.5l0.5,2L82.5,105l-7.7,12.7l2.7,13.4l4.4,3l3.5-3.2l1,2
	l-4.2,5L66,145.3l-10.4,2.5l-0.2,3.7l23.9-7l9.9-2.7l9.1-11.2l10.1-6.7l-5.2,8.7l5.7,0.8l9.6-4.2l1.7,7l6.7,1.5l6.9,6.7l0.5,5
	l-1,1.2l1.2,4.7h1.7l0.2-8h2l0.5,19.6l4.9-4.2l-3.5-20.4h-5.2l-5.7-7.2l27.9-47.2l-27.6-21.6l-30.8,6l-1.2,9.5l6.7,4l-2.5,6.5
	L93.1,84.9L93.1,84.9z"/>
<path id="galapagos" class="st0" d="M195,378.2l-0.6,2.8l-1.1,1.2l0.8,1.4l2-0.8l1-1.7l-0.6-1.8L195,378.2L195,378.2z"/>
<path id="banks" class="st0" d="M203.7,75.9l0.2,4l-8,8.3l2,6.7l5.8-1.6l3.3-4.9l8.4-3.1l6.9-0.5L217,79l-2.7,2l-2-0.7l-1.1-2.5
	l-2.4-2.5L203.7,75.9L203.7,75.9z"/>
<path id="prince_patrick" class="st0" d="M214.1,64l-1.8,3.1l8.6,3.1l3.1-4.7l1.3,3.1h2.2l4.2-4.7l-5.1-1.3l-2-1.6l-2.7,2.7
	L214.1,64L214.1,64z"/>
<path id="eglinton" class="st0" d="M229.2,70.3l-6.9,2.9v2.2l8.9,3.3l-2,2.2l1.3,2.9l5.5-2.5h4.7L243,85l3.8-3.8l-0.9-3.6l-3.1,1.1
	l-0.4-4.5l1.6-2.7h-1.6l-2.4,1.6l-1.1,0.9l0.7,3.1l-1.8,1.3l-2.7-0.2l-0.7-4L229.2,70.3L229.2,70.3z"/>
<path id="mackenzie_king" class="st0" d="M238.3,63.4l-0.7,2.2l4.2,2l3.1-1.8l-0.2-1.3L238.3,63.4L238.3,63.4z"/>
<path id="king_christian" class="st0" d="M241.6,59.6l-3.1,1.1l0.2,1.6l6.9-0.5l-0.2-1.6L241.6,59.6L241.6,59.6z"/>
<path id="ellef_ringnes" class="st0" d="M256.5,63.4l-0.4,1.6l-1.1,1.6v2.2l4.2-0.7l4.4,3.8h1.5v-3.8l-4.4-4.9L256.5,63.4
	L256.5,63.4z"/>
<path id="amund_ringnes" class="st0" d="M267.8,67.9l1.8,2l-1.5,2.7l1.1,2.9l4.9-2.7v-2l-2.9-3.4L267.8,67.9L267.8,67.9z"/>
<path id="axel_heiberg" class="st0" d="M274.2,62.7l0.2,3.6h6l1.5,1.3l-0.2,1.6l-5.3,0.7l3.8,5.1l5.1,0.9l7.1-3.1l-10.2-15.4l-3.1,2
	l0.2,2.7l-3.5-1.3L274.2,62.7L274.2,62.7z"/>
<path id="victoria" class="st0" d="M222.6,88l-8.4,2.2l-4.9,4.2l0.4,4.7l8.9,2.7l-2,4.5l-6.4-4l-1.8,3.4l4.2,2.9l-0.2,4.7l6.4,1.8
	l7.8-0.4l1.3-2.5l5.8,6.5l4-1.3l0.7-4.5l2.9,2l0.4-4.5l-3.6-2.2l0.2-14.1l-3.1-2.5l-3.3,4.5L222.6,88L222.6,88z"/>
<path id="prince_of_wales" class="st0" d="M249.6,97.8l-2.9-1.3l-1.6,2l3.1,4.9l0.2,4.7l6.6-4v-5.8l2.4-2.5L255,94h-4L249.6,97.8
	L249.6,97.8z"/>
<path id="prescott" class="st0" d="M263.8,95.8l-4.7,3.8l1.1,4.7h2.9l1.3-2.5l2,2l2-0.2l5.3-4.5L263.8,95.8L263.8,95.8z"/>
<path id="cornwallis" class="st0" d="M263.4,88.4l-1.1,2.2l4.9,1.8l1.3-2L263.4,88.4L263.4,88.4z"/>
<path id="bathurst" class="st0" d="M260.5,79.9l-4.9,0.7l-2.9,2.7l5.3,0.2l-1.5,4l1.1,1.8l1.5-0.2l3.8-6L260.5,79.9L260.5,79.9z"/>
<path id="devon" class="st0" d="M268.9,78.3l-2.7,0.9l0.4,3.6l4.4,2.9l0.2,2.2l-1.3,1.3l0.7,4.5l17.1,5.6l4.7,1.6l4.7-4l-5.5-4.5
	l-5.1,1.3l-7.1-0.7l-2.7-2.7L276,83l-4.4-2.2L268.9,78.3L268.9,78.3z"/>
<path id="baffin" class="st0" d="M282.9,101.6l-4.9-0.5l-5.8,2.2l-3.1,4.2l0.9,11.6l9.5,0.4l9.1,4.5l6.4,7.4l4.9-0.2l-1.3,6.9
	l-4.4,7.4l-4.9,2.2l-3.5-0.7l-1.8-1.6l-2.7,3.6l1.1,3.6l3.8,0.2l4.7-2.2l4,10.3l10,6.5l6.9-8.7l-5.8-9.4l3.3-3.8l4.7,7.8l8.4-7.4
	l-1.5-3.3l-5.8,1.8l-4-10.9l3.8-6.2l-7.5-8l-4.2,2.9l-4-8.7l-8.4,1.1l-2.2-10.5l-6.9,4.7l-0.7,5.8h-3.8l0.4-5.1L282.9,101.6
	L282.9,101.6z"/>
<path id="bylot" class="st0" d="M292.9,105.6l-1.8,1.8l1.5,2.5l7.3,0.9l-4.7-4.9L292.9,105.6L292.9,105.6z"/>
<path id="ellesmere" class="st0" d="M285.8,80.4v2l-4.9,1.1l1.3,2.2l5.5,2.2l6.2,0.7l4.4,3.1l4.4-2.5l-3.1-3.1h4l2.4-2.7l6-0.9v-1.3
	l-3.3-2.2l0.4-2.5l9.3,1.6l13.8-5.4l-5.1-1.6l1.3-1.8H339l1.8-1.8L319.4,60l-5.1-1.8l-5.5,4l-6.2-5.1l-3.3-0.2l-0.7,4.2l-4.2-3.8
	l-4.9,1.6l0.9,2.5l7.3,1.6l-0.4,3.6l4,2.5l9.8-2.5l0.2,3.4l-8,3.8l-4.9-3.8l-4.4,0.5l4.4,6.3l-2.2,1.1l-3.3-2.9l-2.4,1.6l2.2,4.2
	h3.8l-0.9,4l-3.1-0.5l-4-4.2L285.8,80.4L285.8,80.4z"/>
<path id="southhampton" class="st0" d="M266,141.8l-4.2,5.3l-0.3,5.9l3.7-2.1h4.5l3.2,2.9l2.9-2.4L266,141.8L266,141.8z"/>
<path id="newfoundland" class="st0" d="M317.5,211.1l-10.6,10.1l1.1,2.4l12.9,4.8l1.9-3.2l-1.1-5.3l-4.2,0.5l-2.4-2.7l4-4
	L317.5,211.1L317.5,211.1z"/>
<path id="canada" class="st0" d="M158.2,88.7l2,3l1,4l5,1.2l3.5-3.8l3,1.5l8.5,0.8l6-2.5l1,8.3h3.5v-3.5l3.5,0.2l8.7,10.3l5.7,3.5
	l-3,4.8l1.2,1.2L219,120l0.2,5l3,0.5l0.8-7.5l4.7-1.2l3.5,5.3l7.5,3.5l3.7,0.8l2.5-3l0.2-4.8l4.5-2.8l1.5,4l-4,7l0.5,3.5l2.2-3.5
	l4.5-4l0.2-5.3l-2.5-4l0.8-3.3l6-3l2.7,2l0.5,17.6l4.2-3.8l2.5,1.5l-3.5,6l4.5,1l6.5-10l5.5,5.8l-2.2,10.3l-5.5,3l-5.2-2.5l-9.5,2
	l1,3.3l-2.5,4l-7.7,1.8l-8.7,6.8l-7.7,10.3l-1,3.3l5.2,2l2,5l7.2,7.3l11.5,5l-2.5,11.5l-0.2,3.3l3,2l4-5.3l0.5-10l6.2-0.2l3-5.8
	l0.5-8.8l8-15.6l10,3.5l5.2,7.3L294,178l4,2.3l9.7-6.5l2.7,17.8l9,10.8l0.2,5.5l-10,2.5l-4.7,5l-10-2.3l-5-0.2l-8.7,6.8l5.2-1.2
	l6.5-1.2l1.2,1.5l-1.7,5.5l0.2,5l3,2l3-0.8l1.5-2.3h2l-3.2,6l-6.2,0.2l-2.7,4h-3.5l-1-3l5-5l-6,2l-0.3-8.5l-1.7-1l-5.2,2.3l-0.5,4.3
	h-12l-10.2,7l-13.7,4.5l-1.5-2l6.9-10.3l-3.9-3.8l-2.5-4.8l-5.1-3.9l-5.4-0.4l-9.8-6.8L149,197.4l-1.2-4.8l-6.5-6v-5l1-4.5l-0.5-2.5
	l-2.5-2.5l-0.5-4l6.5-4.5l-4-21.6l-5.5-0.2l-5-6.5L158.2,88.7L158.2,88.7z"/>
<path id="usa" class="st0" d="M148.8,198.3l-1,4l-3.5-2.3h-1.7l-1,4.3l-12.2,27.4l3.2,23.8l4,2l0.8,6.5h8.2l8,6l15.7,1.5l1.7,8
	l2.5,1.8l3.5-3.5l2.7,1.2l2.5,11.5l4.2,2.8l3.5-6.5l10.7-7.8l7,3.3l6,0.5l0.2-3.8l12.4,0.2l2.5,2.8l0.5,6.3l-1.5,3.5l1.7,6h3.7
	l3.7-5.8l-1.5-2.8l-1.5-6l2.2-6.8l10.2-8.8l7.7-2.3l-1-7.3l10.7-11.6l10.7-1.8l-1.7-6l10.5-6v-8l-1-0.5l-3.7,1.2l-0.5,4.9l-12.4,0.1
	l-9.7,6.5l-15.3,5l-2.4-3l6.9-10.5l-3.4-3.3l-2.3-4.4l-4.8-3.9l-5.2-0.4l-9.9-6.8L148.8,198.3L148.8,198.3z"/>
<path id="haida_gwaii" class="st0" d="M133.8,168.4l-1.7,3.3l0.6,2.3l1.1,0.7l-0.3,0.9l-1.2,0.3l0.3,3.4l1.3,1.3l1-1.1l-1.3-3.3
	l0.8-2.7l1.9-2.5l-1.4-2.3L133.8,168.4L133.8,168.4z"/>
<path id="vancouver" class="st0" d="M139.4,187.9l-1.5,0.6l2.8,3.3l0.7,3.9l2.8,3l2.4-0.4v-3.9l-2.9-1.8L139.4,187.9L139.4,187.9z"
	/>
<path id="guatemala" class="st0" d="M194.9,331.5l5.9,4.3l6-7.4l-1-1.5l-2-0.1v-4.4l-1.5-0.9l-4.6,1.4l1.8,4.1L194.9,331.5
	L194.9,331.5z"/>
<path id="honduras" class="st0" d="M207.6,328.8l9.2-0.4l2.7,3.3l-1.7-0.4l-3.3,0.1l-4.3,4l-1.8,4.1l-1.2-0.6v-4.5l-2.7-1.8
	L207.6,328.8L207.6,328.8z"/>
<path id="el_salvador" class="st0" d="M201.6,336.3l4.7,2.3l-0.1-3.7l-2.4-1.5L201.6,336.3L201.6,336.3z"/>
<path id="nicaragua" class="st0" d="M217.7,332.1l2.2,0.4l0.1,4.5l-2.6,7.3l-6.9-0.7l-1.5-3.5l2-4.3l3.9-3.6L217.7,332.1
	L217.7,332.1z"/>
<path id="costa_rica" class="st0" d="M217.4,345l1.4,2.7l1.1,1.5l-1.5,4.5l-2.9-2l-4.7-4.3v-2.9L217.4,345L217.4,345z"/>
<path id="panama" class="st0" d="M220.6,349.6l-1.5,4.6l4.8,1.2l3,0.6l0.5-3.5l3.2-1.6l2.9,1.5l1.1,1.8l1.4-0.2l1.1-3.2l-3.6-1.5
	l-2.7-1.5l-2.7,1.8l-3.2,1.6l-3.3-1.3L220.6,349.6L220.6,349.6z"/>
<path id="colombia" class="st0" d="M253.7,339.8l-2.1-0.2L238,350.8l-1.4,4l-1.9,0.2l0.8,8.7l-4.8,11.6l5.2,4.4l6.6,0.4l4.5,6.7
	l6.6,0.2l-0.2,5h2.5l2.7-9.1l-2.5-3.1l0.6-5.8l5.2-0.4l-0.6-13.5l-11.6-3.7l-2.7-7.3L253.7,339.8L253.7,339.8z"/>
<path id="venezuela" class="st0" d="M250.5,345.9l0.4,2.6l3.2,1l0.7-4.8l3.4-3.5l3.4,4l7.9,2.1l6.7-1.4l4.5,5.6l3.4,2.1l-3.8,5.7
	l1.3,4.3l-2.1,2.7l-2.2,1.9l-4.8-2.4l-1.1,1.1v3.5l3.5,1.7l-2.6,2.8l-2.6,2.8l-3.4-0.3l-3.5-3.8l-0.7-14.3l-11.8-4l-2.1-6.3
	L250.5,345.9L250.5,345.9z"/>
<path id="guyana" class="st0" d="M285,354.1l7.2,6.5l-2.9,3.3l-0.2,2l3.8,3.9l-0.1,3.7l-6.6,2.5l-3.9-5.3l0.8-6.4l-1.7-4.8
	L285,354.1L285,354.1z"/>
<path id="suriname" class="st0" d="M293.1,361.1l2,1.9l3.2-2l2.9,0.1l-0.4,1.1l-1.2,2.5l-0.2,6.3l-5.8,2.3l0.3-4l-3.7-3.5l0.2-1.8
	L293.1,361.1L293.1,361.1z"/>
<path id="guyane" class="st0" d="M302.1,361.8l5.9,3.6l-3.1,6.1l-1.1,1.4l-3.2-1.9l0.1-6.5L302.1,361.8L302.1,361.8z"/>
<path id="ecuador" class="st0" d="M230.2,375.9l-4.7,2.9l-0.3,4.4l-0.9,1.4l3,2.9l-1.3,1.4l0.3,3.6l5.3,1.3l8.1-9.5V381l-3.9-0.2
	L230.2,375.9L230.2,375.9z"/>
<path id="peru" class="st0" d="M225,389.5l-1.9,2l0.1,3.1l16.9,30.9l17.6,11.3l2.7-4.6l0.6-10l-1.4-6.2l-4.8-8.1l-2.9,0.9l-1.3,1.4
	l-5.7-6.5l1.4-7.7l6.6-4.3l-0.5-4l-6.7-0.3l-3.5-5.9l-1.9-0.6l0.1,3.5l-8.7,10.3l-6.5-1.6L225,389.5L225,389.5z"/>
<path id="bolivia" class="st0" d="M258.7,412.8l8.2-3.6l2.7,0.3l1.8,7.6l12.5,4.2l2.1,6.4l5.2,0.6l2.2,5.5l-1.5,5l-8.4,0.6l-3.1,8
	l-6.6-0.1l-2.1-0.4l-3.8,3.7l-1.9-0.2l-6.5-15l1.8-2.7L262,422l-1.6-6.3L258.7,412.8L258.7,412.8z"/>
<path id="paraguay" class="st0" d="M291.8,439.5l2.2,2.4l-0.3,5.1l6.3-0.4l4.8,6.1l-0.4,5.5l-3.1,4.7l-6.3,0.3l-0.3-2.6l1.8-4.3
	l-6.2-3.9h-5.2l-3.9-4.2l2.8-8.1L291.8,439.5L291.8,439.5z"/>
<path id="uruguay" class="st0" d="M300.4,471.9l-2,2.2l0.9,11.8l6.4,1.9l8.2-8.2L300.4,471.9L300.4,471.9z"/>
<path id="argentina" class="st0" d="M305.5,458.2l1.9,1.8l-7.4,11l-2.6,2.9l0.9,12.5l5.7,6.9l-4.8,8.3l-3.6,1.6h-4.1l1.2,6.5
	l-6.5,2.2l1.5,5.5l-3.9,12.4l4.8,3.9l-2.6,6.4l-4.4,6.9l2.3,4.8l-5.7,0.9l-4.7-5.7l-0.8-17.9l-7.2-30.3l2.2-10.6l-4.7-13.5l3.1-17.6
	l2.9-3.4l-0.7-2.6l3.7-3.3l8.2,0.6l4.6,4.9l5.3,0.1l5.4,3.3l-1.6,3.7l0.4,3.8l7.6-0.4L305.5,458.2L305.5,458.2z"/>
<path id="tierra_del_fuego_chile" class="st0" d="M285,554.1l-4.3,9.4l7.4,0.8l0.1-6.2L285,554.1L285,554.1z"/>
<path id="tierra_del_fuego_argentina" class="st0" d="M288.9,558.8l0.3,5.7l4.4-0.4l3.8-2.5l-6.3-1.3L288.9,558.8L288.9,558.8z"/>
<path id="chile" class="st0" d="M283.6,552.6l-3.2,3.5l-0.4,4.2l-6.2-3.5l-6.6-9.5l-1.9-3.4l2.7-3.5l-0.3-4.4l-3.1-1.3l-2.5-1.8
	l0.5-2.5l3.2-0.9l0.6-14.3l-5-2.9l-3.3-74.6l0.9-1.5l6.4,14.9h2.1l0.7,2.4l-2.7,3.3l-3.1,17.9l4.5,13.8l-2.1,10.4l7.3,30.6l0.8,17.9
	l5.2,6.1L283.6,552.6L283.6,552.6z"/>
<path id="chiloe" class="st0" d="M262.3,515.1l-1.3,2l0.6,3.4l1.3,0.1l0.6-4.3L262.3,515.1L262.3,515.1z"/>
<path id="brazil" class="st0" d="M314.2,478.9l6.2-12l0.2-10.1l11.7-7.5h6.5l5.1-8.7l0.9-16.7l-2.1-4.5l12.4-11.3l0.5-12.5
	l-16.8-8.2l-20.3-6.3l-9.6-0.9l2.6-5.4l-0.7-8.2l-2.1-0.7l-3.1,6.1l-1.6,2l-4.2-1.8l-14,4.9l-4.7-5.9l0.8-6.1l-4.4,4.5l-4.9-2.6
	l-0.5,0.7v2.1l4.2,2.2l-6.3,6.6h-4l-4-4.1l-4.5,0.1l-0.6,4.9l2.6,3.2l-3.1,9.9l-3.6,0.3l-5.7,3.6l-1.4,7.1l5,5.3l0.9-1l3.5-0.9l3,5
	l8.5-3.7l3.3,0.2l2.3,8.1l12.2,3.9l2.1,6.4l5.2,0.6l2.5,6.1l-1.7,5.5l2.2,2.9l-0.3,4.3l5.8-0.5l5.4,6.8l-0.4,4.8l3.2,2.7l-7.6,11.5
	L314.2,478.9L314.2,478.9z"/>
<path id="belize" class="st0" d="M204.6,322.4l-0.1,3.6h0.8l2.9-5.3h-1.9L204.6,322.4L204.6,322.4z"/>
<path id="russia" class="st0" d="M818,112.9l1.8,6.1l3.5,1l3.5-5.6l-2-3.8l0.8-3.3h5.3l-1.3,2.5l0.4,9.2l-7.5,18.7l0.8,4.1l-0.2,6.8
	l14.1,20.5l2.8,0.8l0.2-16.7l2.8-2.5l-3-6.6l2.5-2.8L837,134l-3,0.2l-1-12.2l7.8-2l0.5-3.6l4-1l2.3,2l2.8-11.1l4.8-8.1l3.8-2
	l3.3,0.2v-3.8l-5.3-1l-7.3-6.1l3.5-4l-3-6.8l2.5-2.5l3,4l7.5,2.8l8.3,0.8l1-3.5l-4.3-4.3l4.8-6.6l-10.8-3.8l-2.8,5.6l-3.5-4.6
	l-19.8-6.8L816.9,59l-2.8,1.5V62l4,2l-0.5,4.8l-7.3-3l-16.1,6.3l-2.8-5.8h-11.1l-5,5.3l-17.8-4l-16.3,3.3l-2,5.1l2.5,0.8l-0.2,3.8
	l-15.8,1.8l1,5.1L712.1,85l3.5-6.6l-14.8-0.8l1.3,6.8l-4.8,2.3l-4-3.8L677,85.6l-6.3,5.8l-0.2,3.5l-4,0.2l-0.5-4L678.7,80v-7.6
	l-8.3-2.3l-10.8,3.5l-4.5-4.6h-2l-2.5,5.1l2,2.3l-14.3,7.8L626,93.7l-7.5,10.4v4.3l8,3.3l-4,3l-8.5-3l-3.5,3l-5.3-6.1l-1,2.3
	l5.8,18.2l1.5,0.5l4-2l2,1.5v3.3l-3.8-1.5l-2.3,1.8l1.5,3.3l-1.3,8.6l-7.8,0.8l-0.5-2.8l4.5-2.8l1-7.6l-5-6.6l-1.8-11.4l-8-1.3
	l-0.8,4.1l1.5,2l-3.3,2.8l1.3,7.6l4.8,2l1,5.6l-4.8-3l-12.3-2.3l-1.5,4.1l-9.8,3.5l-1.5-2.5l-12.8,7.1l-0.2,4.8l-5,0.8l1.5-3.5v-3.5
	l-5-1.8l-3.3,1.3l2.8,5.3l2,3.5v2.8l-3.8-0.8L544,152l-3.8,4.1l2,3.5l-8.5-0.2l2.8,3.6l-0.8,1.5h-4.5l-3.3-2.3l-0.8-6.3l-5.3-2v-2.5
	l11.1,2.3l6,0.5l2.5-3.8l-2.3-4.1L523,140l-5.5,1.4l-1.9,1.6l0.6,3.8l2.4,0.4l-0.5,5.9l7.3,17.1l-5.3,8.3l-0.4,1.9l2.7,1.9l-2.4,1.6
	h-1.6l0.3,7.4l2.2,3.1v3l2.8,0.3l4.3,1.6l4.6,6.3v1.7l-1.5,2.6l3.4-0.2l3.3,1l4.5,6.4l11.1,1l-0.5,7.6l-3.8,3.3l0.8,1.3l-3.8,4.1
	l-1,3.8l2.3,3.3l7.3,2.5l3-1.8l19.3,7.3l0.8-2l-4-3.8v-4.8l-2.5-0.8l0.5-4.1l4-4.8l-7.2-5.4l0.5-7.5l7.7-5.1l9,0.5l1.5,2.8l9.3,0.5
	l6.8-3.8l-3.5-3.8l0.8-7.1l17.6-8.6l13.5,6.1l4.5-4.1l13.3,12.7l10-1l3.5,3.5l9.5,1l6.3-8.6l8,3.6l4.3,0.8l4.3-3.8L692,199l3.3-5.1
	l9.3,3l2,4.1l4,0.2l2.5-1.8l6.8-0.2l0.8,1.8l7.8,0.5l5.3-5.6l10.8,1.3l3.3-1.3l1-6.1l-3.3-7.3l3.3-2.8h10.3l9.8,11.6l12.6,7.1h3.8
	l0.5-3l4.5-2.8l0.5,16.5l-4,0.2v4.1l2.3,2.8l-0.4,3.6l1.7,0.7l1-2.5l1.5,0.5l1,1l4.5-1l4.5-13.2l0.5-16.5l-5.8-13.2l-7.3-8.9
	l-3.5,0.5v2.8l-8.5-3.3l3.3-7.1l2.8-18.7l11.6-3.5l5.5-3.5h6l-1.5,2l1.5,2.5l5.3-5.6l3,0.2l-0.5-3.3l-4.8-1l3.3-11.9L818,112.9
	L818,112.9z"/>
<path id="china" class="st0" d="M670.4,210.1l-3.5,8.7l-4.8-0.2l-5,11l4.3,5.4l-8.8,12.1l-4.5-0.8l-3,3.8l0.8,2.3l3.5,0.2l1.8,4.1
	l3.5,0.8l10.8,13.9v7.1l5.3,3.3l5.8-1l7.3,4.3l8.8,2.5l4.3-0.5l4.8-0.5l10-6.6l3.3,0.5l1.2,3l2.8,0.8l3.8,5.6l-2.5,5.6l1.5,3.8
	l4.3,1.5l0.8,4.6l5,0.5l0.8-2.3l7.3-3.8l4.5,0.2l5.3,5.8l3.5-1.5l2.3,0.2l1,2.8l1.8,0.2l2.5-3.5l10-3.8l9-10.9l3-10.4l-0.2-6.8
	l-3.8-0.8l2.3-2.5l-0.5-4.1l-9.5-9.6v-4.8l2.8-3.5l2.8-1.3l0.2-2.8h-7l-1.3,3.8l-3.3-0.8l-4-4.3l2.5-6.6l3.5-3.8l3.3,0.2l-0.5,5.8
	l1.8,1.5l4.3-4.3l1.5-0.2l-0.5-3.3l4-4.8l3,0.2l1.8-5.6l2.1-1.1l0.2-3.5l-2-2.1l-0.2-5.5l3.8-0.2l-0.2-14.1l-2.7,1.6l-1,3.6h-4.5
	l-13.1-7.4l-9.4-11.4l-9.6-0.1l-2.4,2.1l3.1,7.1l-1.1,6.7l-3.9,1.6l-2.2-0.2l-0.2,6.6l2.3,0.5l4-1.8l5.3,2.5v2.5l-3.8,0.2l-3,6.6
	l-2.8,0.2l-9.8,12.9l-10.3,4.6l-7,0.5l-4.8-3.3l-6.8,3.6l-7.3-2.3l-1.8-4.8l-12.3-0.8l-6.5-10.6h-2.8l-2.2-4.9L670.4,210.1z"/>
<path id="mongolia" class="st0" d="M673.8,210.2l5.8-7.7l7,3.2l4.8,1.3l5.8-5.3l-4-2.9l2.6-3.7l7.8,2.7l2.7,4.4l4.9,0.1l2.5-1.9
	l5.2-0.2l1.1,1.9l8.7,0.4l5.5-5.6l7.6,0.8l-0.4,7.6l3.3,0.8l4.1-1.9l4.3,2.1l-0.1,1.1l-3.1,0.1l-3.3,6.9l-2.5,0.2l-9.9,12.9
	l-10.1,4.4l-6.3,0.5l-5.2-3.4l-6.7,3.6l-6.6-2.1l-1.9-4.8l-12.5-0.9l-6.4-10.9l-3.1-0.2L673.8,210.2L673.8,210.2z"/>
<path id="north_korea" class="st0" d="M778.3,234.3l1.8,0.8l0.6,6.4l3.7,0.2l3.4-4l-1.2-1.1l0.1-4.3l3.2-3.8l-1.6-2.9l1-1.2l0.6-3
	l-1.8-0.8l-1.6,0.8l-1.9,5.9l-3.1-0.3l-3.6,4.3L778.3,234.3L778.3,234.3z"/>
<path id="south_korea" class="st0" d="M788.3,238.2l6.2,5l1,4.9l-0.2,2.6l-3,3.4l-2.6,0.1l-3-6.4l-1.1-3l1.2-0.9l-0.3-1.3l-1.5-0.7
	L788.3,238.2L788.3,238.2z"/>
<path id="kazakhstan" class="st0" d="M576.7,228.6l4.1-1.8l4.6-0.2l0.3,7H583l-2,3.3l2.7,4.4l4,2.2l0.4,2.6l1.5-0.5l1.3-1.6l2.2,0.5
	l1.1,2.2h2.8v-2.9l-1.7-5.1l-0.8-4.1l5-2.2l6.8,1.1l4.3,4.3l9.6-0.9l5.4,7.6l6.3,0.3l1.7-2.9l2.2-0.5l0.3-3.2l3.3-0.2l1.7,2.1
	l1.7-4.1l15,2.1l2.5-3.3l-4.3-5.2l5.7-12.4l4.6,0.3l3.2-7.6l-6.3-0.6l-3.6-3.5l-10,1.2l-12.9-12.4l-4.5,4l-13.8-6.2l-16.9,8.3
	l-0.5,5.9l4,4.6l-7.7,4.4l-10-0.2l-2.1-3.1l-7.8-0.4l-7.4,4.8l-0.2,6.5L576.7,228.6L576.7,228.6z"/>
<path id="turkmenistan" class="st0" d="M593.8,247.6l-0.6,2.6H589v3.6l4.5,2.9l-1.4,4v1.9l1.8,0.3l2.5-3.2l5.5-1.2l11.8,4.5l0.2,3.2
	l6.6,0.6l7.4-7.8l-0.9-2.5l-4.9-1.1l-13.8-9l-0.6-3.2h-5.2l-2.3,4.3h-2.3L593.8,247.6L593.8,247.6z"/>
<path id="uzbekistan" class="st0" d="M628.9,259.1l3.1,0.2V254l-2.9-1.7l4.9-6.2h2l2,2.3l5.2-2l-7.2-2.5l-0.3-1.5l-1.7,0.4l-1.7,2.9
	l-7.3-0.2l-5.3-7.6l-9.4,0.9l-4.5-4.4l-6.2-1.1l-4.5,1.8l2.6,8.7v2.9h1.9l2.3-4.4l6.2,0.1l0.9,3.4l13.3,8.8l5.1,1.2L628.9,259.1
	L628.9,259.1z"/>
<path id="tajikistan" class="st0" d="M630.2,251.8l4.1-5.1h1.5l0.5,1.1l-1.9,1.4v1.1l1.2,0.9l6,0.4l2-0.8l0.9,0.2l0.6,1.9l3.6,0.4
	l1.8,3.8l-0.5,1.1l-0.7,0.1l-0.7-1.4l-1.5-0.1l-2.7,0.4l-0.2,2.5l-2.7-0.2l0.1-3.2l-2-1.9l-3,2.5l0.1,1.6l-2.6,0.9h-1.5l0.1-5.6
	L630.2,251.8L630.2,251.8z"/>
<path id="kirgizstan" class="st0" d="M636.8,239.2l-0.3,2.5l0.2,1.6l8.7,2.9l-7.6,3.1l-0.9-0.7l-1.7,1.1l0.1,0.6l0.9,0.4l5.4,0.1
	l2.7-0.8l3.5-4.4l4.4,0.8l5.3-7.3l-14.1-1.9l-2,4.7l-2.5-2.6L636.8,239.2L636.8,239.2z"/>
<path id="afghanistan" class="st0" d="M614.1,267.1l1.6,12.5l4,0.9l0.4,2.2l-2.8,2.4l5.3,4.3l10.3-3.7l0.8-4.4l6.5-4l2.5-9.4l1.8-2
	l-1.9-3.3l6.3-3.9l-0.8-1.1l-2.9,0.2l-0.3,2.7H641l-0.1-3.6l-1.2-1.5l-2.1,1.9l0.1,1.8l-3.2,1.2l-5.8-0.4l-7.6,8L614.1,267.1
	L614.1,267.1z"/>
<path id="pakistan" class="st0" d="M623.1,289.8l2.6,3.9l-0.2,2l-3.5,1.4l-0.2,3.2h4l1.4-1.1h7.5l6.8,6l0.9-2.9h5.1l0.1-3.6l-5.2-5
	l1.1-2.7l5.3-0.4l7.2-14.9l-4-3.1l-1.5-5.2l9.6-0.9l-5.7-8.1l-3-0.8l-1.2,1.5l-0.9,0.1l-5.7,3.6l1.9,3.1l-2.1,2.2l-2.6,9.6l-6.4,4.1
	l-0.9,4.5L623.1,289.8L623.1,289.8z"/>
<path id="india" class="st0" d="M671,353l4.6-2.2l2.7-9.8l-0.1-12.1l15.6-16.8v-4l3.2-1.2l-0.1-4.6l-3.5-6.7l2-3.6l4.3,4l5.6,0.3
	v2.2l-1.7,1.9l0.4,1l3,0.1l0.6,3.4h0.9l2.2-4l1.1-10.5l3.7-2.6l0.1-3.6l-1.5-2.9l-2.3-0.1l-9.2,6.1l0.6,3.9h-6.5l-2.3-2.8l-1.2,0.2
	l0.4,3.9l-14-1l-8.7-3.9l-0.5-4.8l-5.8-3.6l-0.1-7.4l-4-4.5l-9.1,0.9l1,4l4.5,3.6l-7.7,15.8L644,292l-0.8,1.9l5.1,4.7l-0.2,4.8
	l-5.2-0.1l-0.6,2.4l4.3-0.2l0.1,1.9l-3.1,1.6l2,3.7l3.8,1.2l2.3-1.7l1.1-3.1l1.4-0.6l1.6,1.6l-0.5,4l-1.1,1.9l0.2,3.2L671,353
	L671,353z"/>
<path id="nepal" class="st0" d="M671.2,282.6l0.5,4.3l8.1,3.7l13,1l-0.5-3.1l-8.7-2.4l-7.3-4.4L671.2,282.6L671.2,282.6z"/>
<path id="bhutan" class="st0" d="M695.4,288.1l1.5,2.1h5.2l-0.5-2.9L695.4,288.1L695.4,288.1z"/>
<path id="bangladesh" class="st0" d="M695.6,293.1l-1.3,2.4l3.4,6.5l0.1,5l0.6,1.4l4,0.1l2.3-2.2l1.6,1l0.3,3.1l1.3-0.8l0.1-3.9
	l-1.1-0.1l-0.7-3.3l-2.8-0.1l-0.7-1.9l1.7-2.3v-1.1h-4.9L695.6,293.1L695.6,293.1z"/>
<path id="burma" class="st0" d="M729.4,343.6l-2.8-4.4l2-2.8l-1.9-3.5l-1.8-0.3l-0.3-5.9l-2.7-5.2l-0.8,1.2l-1.8,3l-2.2,0.3
	l-1.1-1.5l-0.6-4l-1.7-3.2l-6.8-6.5l1.7-1.1l0.3-4.7l2.5-4.2l1.1-10.4l3.6-2.5l0.1-3.8l2.2,0.7l3.4,4.9l-2.5,5.4l1.7,4.3l4.2,1.7
	l0.8,4.6l5.7,0.9l-1.6,2.7l-7.2,2.8l-0.8,4.6l5.3,6.8l0.2,3.6l-1.2,1.2l0.1,1.1l3.9,5.8l0.1,6L729.4,343.6L729.4,343.6z"/>
<path id="thailand" class="st0" d="M730,310.5l3.2,4.2v5.1l1.1,0.6l5.2-2.5l1,0.3l6.2,7.1l-0.2,4.9l-2-0.3l-1.8-1.1l-1.3,0.1
	l-2.3,3.9l0.5,2.1l1.9,1l-0.1,2.4l-1.3,0.7l-4.6-3.2V333l-1.9-0.1l-0.8,1.2l-0.4,12.6l3,5.4l5.3,5.1l-0.2,1.5l-2.8-0.1l-2.6-3.8
	h-2.7l-3.4-2.7l-1-2.8l1.5-2.4l0.5-2.1l1.6-2.8l-0.1-6.4l-3.9-5.6l-0.2-0.7l1.2-1.3l-0.3-4.4l-5.1-6.5l0.6-3.8L730,310.5L730,310.5z
	"/>
<path id="malaysia" class="st0" d="M732.7,355.5l2,4.5l0.5,5.9l2.7,4.2l6.5,3.9l2.5,0.2l-0.5-4.1l-2.1-5.2l-3.1-6.6l-0.3,1.2
	l-3.8-0.2l-2.7-3.9L732.7,355.5L732.7,355.5z"/>
<path id="cambodia" class="st0" d="M740.5,339.5l4.1,4.4l7.6-5.6l0.7-8.9l-3.9,2.7l-2-1.1l-2.8-0.4l-1.5-1.1h-0.8l-2,3.3l0.3,1.5
	l2.1,1.1l-0.2,3.1L740.5,339.5L740.5,339.5z"/>
<path id="laos" class="st0" d="M735.5,302.9l-2.4,1.2l-2,5.9l3.4,4.3l-0.6,4.7l0.6,0.2l5.6-2.7l7.5,8.4l-0.2,5.3l1.6,0.9l4-3.3
	l-0.3-2.6l-11.6-11l0.1-1.7l1.5-1l-1-2.8l-4.8-0.8L735.5,302.9L735.5,302.9z"/>
<path id="vietnam" class="st0" d="M745.1,344.5l1.2,1.9l0.2,2.1l3.1,0.3l3.8-5.1l3.6-1l1.9-5.2l-0.9-8.3l-3.7-5.1l-3.9-3.1l-5-8.5
	l3.5-5.9l-5.1-5.8l-4.1-0.2l-3.7,2l1.1,4.7l4.9,0.9l1.3,3.6l-1.7,1.1l0.1,0.9l11.5,11.2l0.5,3.3l-0.7,10.4L745.1,344.5L745.1,344.5z
	"/>
<path id="georgia" class="st0" d="M555.5,244.2l3.3,4.3l4.1,1.9h2.5l4.3-1.2l1.1-1.7l-12.8-4.8L555.5,244.2L555.5,244.2z"/>
<path id="armenia" class="st0" d="M569.7,249.9l4.8,6.3l-1.4,1.6l-3.4-0.6l-4.2-3.8l0.2-2.5L569.7,249.9L569.7,249.9z"/>
<path id="azerbaijan" class="st0" d="M571.4,247.7l-1,1.7l4.7,6.2l1.6-0.5l2.7,2.8l1.2-5l2.9,0.5l-0.1-1.4l-4.8-4.2l-0.9,2.5
	L571.4,247.7L571.4,247.7z"/>
<path id="iran" class="st0" d="M569.7,257.9l-1.2,1.3l0.1,2l1.5,2.1l5.4,5.9l-0.8,2.4h-0.9l-0.5,2.4l3,3.9l2.8,0.2l5.6,7.8l3.2,0.2
	l2.5,1.8l0.1,3.5l9.7,5.7h3.6l2.2-1.9l2.8-0.1l1.6,3.8l10.5,1.5l0.3-3.9l3.5-1.3l0.2-1.4l-2.8-3.8l-6.2-5l3.2-2.9l-0.2-1.3l-4.1-0.6
	l-1.7-13.7l-0.2-3.1l-11-4.2l-4.9,1.1l-2.7,3.4l-2.4-0.2l-0.7,0.6l-5.4-0.4l-6.8-5l-2.5-2.8l-1.2,0.3l-2.1,2.4L569.7,257.9
	L569.7,257.9z"/>
<path id="turkey" class="st0" d="M558.7,249.2l-2.2,2.4l-8.2-0.2l-4.9-2.9l-4.8-0.1l-5.5,3.9l-5.2,0.2l-0.5,2.9h-5.9l-2.3,2.1v1.2
	l1.4,1.2v1.3l-0.6,1.5l0.6,1.3l1.9-0.9l1.9,2l-0.5,1.4l-0.7,0.9l1,1.2l5.2,1.1l3.6-1.5V266l1.8,0.4l4.2,2.5l4.6-0.7l2-1.9l1.3,0.5
	v2.1h1.8l1.5-2.9l13.4-1.4l5.8-0.7l-1.5-2v-2.7l1.2-1.4l-4.3-3.4l0.2-2.9h-2.3L558.7,249.2L558.7,249.2z"/>
<path id="yemen" class="st0" d="M572,329.2l1.4,4.3v4.2l3.5,3.1l24.4-9.9l0.2-2.7l-3.9-7l-9.8,3.1l-5.6,5.5l-6.5-3.9L572,329.2
	L572,329.2z"/>
<path id="oman" class="st0" d="M598.4,320.8l7.4-4.3l1.3-6.2l-1.6-0.9l0.7-6.7l1.4-0.8l1.5,2.4l9,4.7v2.6l-10.9,16l-5,0.2
	L598.4,320.8L598.4,320.8z"/>
<path id="emirates" class="st0" d="M594,304.9l0.9,3.5l9.9,0.9l0.7-7.1l1.9-1l0.5-2.6l-3.1,0.9l-3.5,5.2L594,304.9L594,304.9z"/>
<path id="qatar" class="st0" d="M592.6,299l-0.5,4l1.5,1.2l1.4-0.1l0.5-5l-1.2-0.9L592.6,299L592.6,299z"/>
<path id="kuwait" class="st0" d="M583.3,287.2l-2.2-1.2l-1.6,1.6l0.2,3.1l3.6,1.4V287.2L583.3,287.2z"/>
<path id="saudi" class="st0" d="M584,293.2l7,9.8l2.3,1.8l1,4.4l10.8,0.9l1.2,0.6l-1.2,5.4l-7.1,4.2l-10.4,3.1l-5.5,5.4l-6.6-3.8
	l-4,3.5l-5.5-9.1l-3.8-1.7l-1.4-2.1V311L547,294.3l-0.5-3h4l4.8-4.2l0.2-2.1l-1.4-1.4l2.8-2.3l5.9,0.4l10,8.4l5.9-0.3l0.4,1.5
	L584,293.2L584,293.2z"/>
<path id="syria" class="st0" d="M546.7,269.1l-0.3,2.5l2.8,1.2l-0.1,7l2.8-0.1l2.8-2.1l1.1-0.2l6.4-5.1l1.3-7.4l-12.8,1.3l-1.3,3
	L546.7,269.1L546.7,269.1z"/>
<path id="iraq" class="st0" d="M564.3,265l-1.6,7.7l-6.5,5.4l0.4,2.5l6.3,0.4l10,8.2l5.6-0.2l0.2-1.9l2.1-2.2l2.9,1.6l0.4-0.4
	l-5.6-7.4l-2.6-0.2l-3.5-4.5l0.7-3.3l1.1-0.1l0.4-1.5l-4.8-5L564.3,265L564.3,265z"/>
<path id="jordan" class="st0" d="M548.9,280.8l-2.5,8.6l-0.1,1.3h3.9l4.3-3.8l0.1-1.4l-1.8-1.8l3.2-2.6l-0.5-2.4l-0.9,0.2l-2.6,1.9
	H548.9L548.9,280.8z"/>
<path id="lebanon" class="st0" d="M546.2,272.4l0.1,1.9l-0.8,3l2.8,0.2l0.2-4.2L546.2,272.4L546.2,272.4z"/>
<path id="israel" class="st0" d="M545.3,278.1l-1.6,5l2,6l2.3-8.8v-1.9L545.3,278.1L545.3,278.1z"/>
<path id="cyprus" class="st0" d="M543.2,269.8l1.2,0.9l-3.8,3.6l-1.8-0.1l-1.3-0.9l0.2-1.8l2.8-0.2L543.2,269.8L543.2,269.8z"/>
<path id="norway" class="st0" d="M515.5,142.1l2-1.5l-0.2-1.7l-1.3-0.7l0.2-2h1.1v-1.1l-4.8-1.3l-7.1,0.7l-0.7,3.1l-1.6-0.5
	l-1.1-1.8l-3.5,0.2L498,139l-1.6,0.7l-0.9-1.8l-7.3,5.9l1.5,1.7l-2.8,1.3l-6.2,12.4l-2.2,1.5l0.2,1.1l2.2,1.1l-0.5,2.4l-3.7-0.2
	l-1.1-1.3l-2.4,2.8l-1.5,1.1l-0.4,2.6L470,171l-3.3,0.7l-1.6,5.2l1.1,8.5l1.3,3.9l1.5,1.5l3.3-0.2l4.8-4.6l1.8-3.1l0.5,4.6l3.1-5.5
	l0.2-15.5l2.5-1.6l0.8-8.6l7.7-11.1l3.7-1.3l1.6-2l5.5,1.3l2.8,1.7l0.9-4.6l4.6-2.8L515.5,142.1L515.5,142.1z"/>
<path id="britain" class="st0" d="M446.1,189.1l-1.8,2.8l0.7,1.1h4.2v1.9l-1.1,1.5l0.7,3.9l2.4,4.6l1.8,4.2l2.9,1.1l1.3,2.2l-0.2,2
	l-1.8,1.1l-0.2,0.9l1.3,0.7l-1.1,1.5l-2.6,1.1l-5-0.6l-7.7,3.5l-2.6-1.3l7.3-4.2l-0.9-0.6l-3.9-0.4l2.4-3.5l0.4-3l3.1-0.4l-0.5-5.7
	l-3.7-0.2l-1.1-1.3l0.2-4.2l-2.2,0.2l2.2-7.4l4-3L446.1,189.1L446.1,189.1z"/>
<path id="ulster" class="st0" d="M438.4,201.5l-3.3,0.4l-0.2,3l2.2,1.5l2.4-0.6l0.9-1.7L438.4,201.5L438.4,201.5z"/>
<path id="ireland" class="st0" d="M439.5,206.6l-0.9,6l-8.1,3H428l-1.8-1.3v-1.1l4-2.6l-1.1-2.2l0.2-3.1l3.5,0.2l1.6-3.8l-0.2,3.3
	l2.7,2.1L439.5,206.6L439.5,206.6z"/>
<path id="sweden" class="st0" d="M497.7,144.6l2,1.8h3.7l2,3.9l0.5,6.7l-5,3.5v3.5l-3.5,4.8l-2,0.2l-2.8,4.6l0.2,4.4l4.8,3.5l-0.4,2
	l-1.8,2.8l-2.8,2.4l0.2,7.9l-4.2,1.5l-1.5,3.1h-2l-1.1-5.5l-4.6-7l3.8-6.3l0.3-15.6l2.6-1.4l0.6-8.9l7.4-10.6L497.7,144.6
	L497.7,144.6z"/>
<path id="finland" class="st0" d="M506.8,156.9l2.1,0.9l1.3,2.4l-1.3,1.7l-6.4,7l-1.1,3.7l1.5,5.4l5,3.7l6.6-3.1l5.3-0.7l5-7.9
	l-3.7-8.7l-3.5-8.3l0.5-5.4l-2.2-0.4l-0.6-3.9l-3-4.8l-3.3,2.3l-1.3,5.3l-3.5-2.1l-4.8-1.2l-1.1,1.3l1.9,1.7l3.4-0.1l2.7,4.4
	L506.8,156.9L506.8,156.9z"/>
<path id="path302" class="st0" d="M518.1,191.4l-6.9-1.1l0.1,3.8l6.3,3.9l2.6-0.8l-0.2-2.9L518.1,191.4L518.1,191.4z"/>
<path id="hiumaa" class="st0" d="M506.8,187.6l-1.5-0.1l-0.9,0.9l0.6,1l1.5,0.1l0.8-1.2L506.8,187.6L506.8,187.6z"/>
<path id="saaremaa" class="st0" d="M506.6,191.7l-1.5-0.1l-2.7,3.2v1.5l0.9,0.4l1.8,0.1l2.9-2.4l0.4-0.8L506.6,191.7L506.6,191.7z"
	/>
<path id="lithuania" class="st0" d="M510.8,194.7l-2.1-0.1l-3,2.8h-2.5l0.1,3.5l-1.5,2.8l5.4,0.1l1.5-0.2l1.5,1.9l3.6-0.1l3.4-4.3
	l-0.2-2.6L510.8,194.7L510.8,194.7z"/>
<path id="belarus" class="st0" d="M510.7,206.3l1.5,2.5l-0.6,2l0.1,1.6l0.5,1.9l3.1-1.8l3.8,0.1l2.7,1.1h6.8l2-4.8l1.2-1.8v-1.2
	l-4.3-6.1l-3.8-1.5l-3.1-0.4l-2.7,0.9l0.1,2.7l-3.8,4.7L510.7,206.3L510.7,206.3z"/>
<path id="poland" class="st0" d="M511.5,214.8l0.9,1.6l0.2,1.7l-0.7,1.6l-1.6,3.1l-1.4,0.6l-1.8-0.8l-1,0.1l-2.5,1l-2.9-0.9
	l-4.7-3.3l-4.6-2.5l-1.9-2.8l-0.4-6.6l3.6-3.1l4.7-1.6l1.8-0.2l-0.7,1.4l0.5,0.6l7.9,0.1l1.7-0.1l2.8,4.3l-0.7,1.8l0.3,2.1
	L511.5,214.8L511.5,214.8z"/>
<path id="spain" class="st0" d="M448.4,245h-12.7l-2.6-1.2l-1.2,0.1l-1.5,3.1l0.5,3.2l4.9,0.4l0.6,2.1l-2.1,11.9l0.1,2.1l3.5,1.9
	l4,0.3l8-2l3.9-4.9l0.1-5l6.9-6.2l0.4-2.8l-6.3-0.1L448.4,245L448.4,245z"/>
<path id="portugal" class="st0" d="M430.9,251.2l-0.6,8.6l-1.8,1.6l0.2,1l1.2,2.1l-0.8,2.5l1.3,0.4l3.1-0.4l-0.2-2.5l2-11.6
	l-0.4-1.6L430.9,251.2L430.9,251.2z"/>
<path id="majorca" class="st0" d="M461.1,257.2l-1.6,0.5l0.4,1.4h2.3l1-1.1L461.1,257.2L461.1,257.2z"/>
<path id="sardinia" class="st0" d="M477.6,253.4l-2.6,1.3l0.4,5.2l2.1,0.4l1.6-1.5v-4.9L477.6,253.4L477.6,253.4z"/>
<path id="corsica" class="st0" d="M477.8,247l-2,2l-0.2,1.8l1.6,1l0.6-0.1l0.4-2.6L477.8,247L477.8,247z"/>
<path id="france" class="st0" d="M460.4,218.7l-2.2,0.5l-4.4,4.8l-1.3,0.1l-1.8-1.2l-1.1,0.3l-0.9,2.8l-6.5,0.2l0.2,1.4l4.4,2.9
	l5.1,4.1l-0.1,4.9l-2.7,4.8l5.9,2.9l6,0.2l1.9-2.1l3.8,0.1l1.1,1l3.8-0.3l2-2.5l-2.5-2.9l-0.2-1.9l0.5-2.1l-1.2-1.8l-2.1,0.6
	l-0.3-1.6l4.7-5.2v-3.1l-3.1-1.8l-1.6-0.3L460.4,218.7L460.4,218.7z"/>
<path id="netherlands" class="st0" d="M470.1,208.3l-4.5,2.2l1,0.9l0.1,2.2l-1-0.2l-1.1-1.6l-2.5,4l3.9,0.8l1.5,1.5h0.8l0.5-3.5
	l2.5-1L470.1,208.3L470.1,208.3z"/>
<path id="belgium" class="st0" d="M461.6,216.5l-0.6,1.6l6.9,4.5l2,0.5l0.1-2.1l-1.7-1.9h-1.1l-1.5-1.6L461.6,216.5L461.6,216.5z"/>
<path id="germany" class="st0" d="M471.1,207.9l3.6-0.6v-2.5l3-0.5l1.6,1.6l1.7,0.2l2.7-1.2l2.4,0.7l2.1,1.8l0.3,6.9l2.1,2.8
	l-2.8,0.4l-4.6,2.9l0.4,1l4.1,3.9l-0.3,1.9l-3.9,1.9l-3.6,0.1L479,231h-1.8l-0.9-1.9l-3.2-0.8l-0.1-3.2l-2.7-1.8l0.3-2.3l-1.8-2.5
	l0.5-3.3l2.5-1.2L471.1,207.9L471.1,207.9z"/>
<path id="denmark" class="st0" d="M476.8,191.5l-4.1,4.6l-0.1,3l1.9,4.9l3-0.6l-0.4-4l2-2.3v-1.8l-1.4-3.7L476.8,191.5L476.8,191.5z
	"/>
<path id="sjlland" class="st0" d="M481.4,199.6h-0.9l-1.2,1.1l0.1,1.8l2.9,0.1l0.1-2L481.4,199.6L481.4,199.6z"/>
<path id="gotland" class="st0" d="M498.5,190.2l-2.1,1.7l1.1,2.4l1.9-1.8L498.5,190.2L498.5,190.2z"/>
<path id="switzerland" class="st0" d="M472.9,229.4l-4.4,4.6l0.1,0.5l1.8-0.6l1.6,2.2l2.7-1l1.9,1.5l0.8-0.4l2.3-3.6l-0.6-0.6
	l-2.3-0.1l-1.1-2.3L472.9,229.4L472.9,229.4z"/>
<path id="czech" class="st0" d="M488.4,224.9h3h1.5l2.4,1.7l4.4-3.6l-4.3-3l-4.2-2l-2.9,0.5l-3.9,2.5L488.4,224.9L488.4,224.9z"/>
<path id="slovakia" class="st0" d="M495.8,227.1l0.7,0.6l0.1,1l7.6-0.2l5.6-2.4l-0.1-2.5l-1.1,0.5l-1.5-0.8h-1l-2.5,1l-3.4-0.8
	L495.8,227.1L495.8,227.1z"/>
<path id="austria" class="st0" d="M480.6,230.1l-0.6,1.4l0.6,1l2.3-0.5h2l2.1,1.8l4.6-0.8l3.4-2l0.9-1.4l-0.1-1.7l-3-2.3h-4
	l-0.3,2.3L484,230L480.6,230.1L480.6,230.1z"/>
<path id="hungary" class="st0" d="M496.7,229.6l-1.2,1.8l0.1,2.8l1.9,0.9l5.7,0.2l7.9-6.7v-1.5l-0.9-0.4l-5.7,2.6L496.7,229.6
	L496.7,229.6z"/>
<path id="slovenia" class="st0" d="M494.8,232l-2.5,1.5l-4.7,1l1,2.7h3.3l3.1-2.6L494.8,232L494.8,232z"/>
<path id="croatia" class="st0" d="M495.6,235.2l-3.5,2.9h-3.6l-0.4,2.5l1.6,0.4l0.8-1.2l1.3,1.1l1,3.6l7.1,3.3l0.7-0.8l-7.2-7.4
	l0.7-1.4l6.8-0.3l0.7-2.2l-4.4,0.1L495.6,235.2L495.6,235.2z"/>
<path id="bosnia" class="st0" d="M494.8,238.9l-0.4,0.6l6.7,6.9l2.5-3.6l-0.1-1.4l-2.1-2.6L494.8,238.9L494.8,238.9z"/>
<path id="italy" class="st0" d="M472.3,237l-0.6,1.6l0.2,1.7l2.4,2.8l3.8-0.1l8.3,9.6l5.2,1.5l3.1,2.9l0.7,6.6l1.6-1l1.4-3.6
	l-0.4-2.6l2.4-0.2l0.4-1.5l-6.9-3.3l-6.5-6.4l-2.6-3.8l-0.6-3.6l3.3-0.8l-0.9-2.4l-2-1.7l-1.8-0.1l-2.4,0.7l-2.3,3.2l-1.4,0.9
	l-2.1-1.3L472.3,237L472.3,237z"/>
<path id="sicily" class="st0" d="M492.4,263l-1.5-0.8l-5,0.8l0.2,1.3l4.5,2.2l0.7,0.7l1.2,0.2L492.4,263L492.4,263z"/>
<path id="malta" class="st0" d="M492.6,270.5l-1.7,0.3l0.1,1.9l1.5,0.5l0.7-0.6L492.6,270.5L492.6,270.5z"/>
<path id="ukraine" class="st0" d="M515.6,213.1l-2.9,1.6l0.7,3.1l-2.7,5.6v2.5l1.3,0.8l8.1,0.4l2.3-1.9l2.4,0.8l3.5,4.6l-2.5,4.6
	l3,0.9l4-4.6l2.3,0.4l2.1,1.5l-1.8,2.4l2.5,3.9h2.7l1.4-2.6l2.8-0.6l0.1-2.1l-5.2-0.8l0.2-2.3h5.1l5.5-4.4l2.4-2.1l0.4-6.7l-10.8-1
	l-4.4-6.2l-3.1-1.1l-3.7,0.2l-1.7,4.1l-7.6,0.1l-2.5-1.1L515.6,213.1L515.6,213.1z"/>
<path id="moldova" class="st0" d="M520.8,227.7l3.1,4.8l-0.3,2.7l1.1,0.1l2.6-4.4l-3.2-3.9l-1.8-0.7L520.8,227.7L520.8,227.7z"/>
<path id="romania" class="st0" d="M512.2,227.6l-0.3,1.5l-5.8,4.8l4.8,7.1l3.1,2.2h5.6l1.8-1.5l2.5-0.3l1.8,1.1l3.3-3.7l-0.6-1.9
	l-3.3-0.9l-2.3-0.1l0.1-3.2l-3-4.7L512.2,227.6L512.2,227.6z"/>
<path id="montenegro" class="st0" d="M504.9,247.2v-0.9l-1.3-1.9l-2.1,3l0.4,1.3l1.7,0.3L504.9,247.2z"/>
<path id="serbia" class="st0" d="M505.6,234.5l-2.1,1.5h-1l-0.7,2.1l2.4,2.8l0.2,2.2l-0.3,0.5l1.6,2.3l0.1,1.2l1.2,1.1l3.8-1.2
	l-0.3-5.5L505.6,234.5z">
<desc  id="desc7821">includes kosovo</desc>
</path>
<path id="bulgaria" class="st0" d="M511.4,242.4l0.2,5l1.7,3.5l6.3,0.1l2.8-2l2.8-1.1l-0.7-3.2l0.6-1.7l-1.4-0.7l-2,0.2l-1.5,1.5
	l-6.4,0.1L511.4,242.4L511.4,242.4z"/>
<path id="albania" class="st0" d="M504,249.8v4.6l1.3,2.5l1-0.1l1.6-3l-1-1.3l-0.4-3.3l-1.3-1.2L504,249.8L504,249.8z"/>
<path id="macedonia" class="st0" d="M510.9,248l-3.4,1.1l0.2,2.9l0.8,1l4-1.9L510.9,248L510.9,248z"/>
<path id="greece" class="st0" d="M506.7,257.6l-0.1,1.3l4.6,2.3l2.2,0.9l-1.2,1.2l-2.6,0.3l-0.4,1.2l0.9,2l2.9,1.5l1.3,0.1l0.2-3.4
	l1.9-2.3l-5.2-6.1l0.7-2.1l1.2-0.1l1.8,1.5l1.2-0.6l0.4-2.1l5.4,0.1l0.2-3.2l-2.3,1.6l-6.6-0.2l-4.3,2.2L506.7,257.6L506.7,257.6z"
	/>
<path id="thrace" class="st0" d="M523,249.7l-0.2,3.6l3.1-0.9l1.4-0.9l-0.4-1.5l-1.5-1.2L523,249.7L523,249.7z"/>
<path id="crete" class="st0" d="M516.8,270.6l1.6,0.1l0.7,1h2.4l1.6-0.6l0.5,0.6l-1,1.4l-4.6,0.2l-0.8-1.1l-0.9-0.5L516.8,270.6
	L516.8,270.6z"/>
</svg>
